<?xml version="1.0" standalone="no"?>
<!DOCTYPE svg PUBLIC "-//W3C//DTD SVG 20010904//EN"
 "http://www.w3.org/TR/2001/REC-SVG-20010904/DTD/svg10.dtd">
<svg version="1.0" xmlns="http://www.w3.org/2000/svg"
 width="1945.000000pt" height="1945.000000pt" viewBox="0 0 1945.000000 1945.000000"
 preserveAspectRatio="xMidYMid meet">
<metadata>
Created by potrace 1.11, written by Peter Selinger 2001-2013
</metadata>
<g transform="translate(0.000000,1945.000000) scale(0.100000,-0.100000)"
fill="#000000" stroke="none">
<path d="M12220 19030 c0 -5 -8 -10 -17 -10 -22 -1 -55 -25 -46 -33 3 -4 3 -7
-2 -7 -4 0 -14 8 -22 18 -8 9 -12 12 -9 5 4 -6 0 -13 -6 -16 -7 -2 -1 -8 15
-12 15 -4 27 -8 27 -9 0 0 4 -16 9 -34 6 -20 6 -30 0 -27 -5 4 -9 -5 -9 -20 0
-16 13 -39 34 -60 19 -19 50 -63 69 -97 19 -35 47 -85 62 -113 15 -27 29 -63
31 -79 3 -28 3 -28 -12 -10 -9 10 -13 13 -9 7 9 -18 -3 -16 -21 2 -19 18 -47
20 -41 3 2 -7 10 -12 16 -10 7 1 10 -2 6 -8 -4 -6 -1 -17 5 -25 7 -8 10 -15 6
-15 -3 0 -18 19 -33 43 -15 23 -36 48 -45 55 -9 7 -17 21 -17 32 -1 11 -1 29
-2 39 0 14 -6 18 -19 16 -11 -2 -17 1 -15 8 6 15 -4 29 -30 43 -11 6 -20 17
-20 25 -1 19 -36 59 -53 59 -10 0 -10 -5 -1 -22 10 -20 7 -18 -20 6 -17 17
-31 26 -31 20 0 -5 -6 -2 -13 6 -7 8 -28 22 -47 31 -19 9 -48 22 -64 30 -16 8
-38 13 -48 11 -15 -3 -87 45 -118 78 -3 3 -13 12 -23 19 -18 14 -18 13 -14
-19 3 -18 11 -36 17 -40 6 -4 10 -11 9 -16 -1 -5 2 -20 8 -34 14 -36 23 -100
14 -100 -5 0 -25 18 -46 41 -20 22 -39 38 -42 35 -3 -3 -1 -12 6 -20 6 -8 14
-24 16 -36 3 -16 0 -20 -13 -18 -9 3 -16 10 -14 16 1 7 -5 12 -14 12 -8 0 -12
-4 -9 -10 3 -5 8 -27 10 -47 6 -58 22 -132 41 -196 9 -31 15 -59 12 -62 -12
-12 -52 -14 -71 -4 -11 6 -33 12 -49 13 -29 2 -29 2 -22 -43 3 -25 6 -48 6
-51 0 -29 -4 -40 -16 -40 -7 0 -19 -7 -26 -15 -7 -8 -16 -13 -20 -10 -4 2 -5
-7 -2 -22 3 -18 -1 -30 -13 -39 -9 -7 -14 -17 -10 -23 4 -7 -3 -11 -18 -11
l-24 0 33 -64 c18 -36 40 -76 48 -89 9 -13 13 -27 9 -30 -3 -4 -1 -7 5 -7 16
0 43 -56 36 -74 -4 -9 -2 -22 4 -29 19 -24 82 -148 82 -162 0 -8 17 -41 39
-74 21 -33 48 -86 60 -118 12 -32 47 -109 79 -172 31 -62 57 -119 57 -125 1
-6 6 -21 13 -33 7 -13 10 -23 8 -23 -3 0 26 -64 65 -141 39 -78 68 -147 65
-154 -2 -7 1 -16 8 -18 19 -7 117 -214 120 -252 2 -16 13 -50 26 -75 13 -25
38 -81 56 -125 68 -167 87 -210 98 -225 41 -50 123 -249 132 -319 5 -40 23
-101 34 -116 9 -12 24 -67 22 -77 -1 -5 3 -8 9 -8 5 0 8 -4 5 -9 -3 -5 1 -12
10 -15 8 -3 12 -11 9 -17 -4 -6 2 -13 14 -16 12 -3 21 -12 21 -19 0 -19 0 -19
10 -54 7 -26 6 -30 -10 -30 -12 0 -18 -7 -17 -19 1 -12 6 -17 15 -14 11 5 11
7 0 14 -10 7 -9 9 3 9 9 0 19 -9 22 -21 4 -14 2 -19 -8 -15 -9 3 -12 -3 -10
-20 3 -28 15 -45 16 -23 0 8 5 3 10 -10 5 -13 7 -38 4 -55 -4 -17 -8 -40 -10
-51 -2 -11 -4 -21 -5 -22 -2 -2 -3 -7 -4 -12 0 -5 -5 -13 -9 -18 -5 -4 -8 -3
-6 2 3 11 -10 82 -18 105 -4 8 -5 18 -5 23 1 4 -3 7 -9 7 -5 0 -8 4 -5 9 3 5
-1 12 -10 15 -18 7 -17 1 20 -163 14 -62 26 -116 26 -118 0 -2 6 -1 13 3 6 4
4 -2 -6 -14 -12 -13 -16 -26 -11 -34 12 -18 14 -39 4 -33 -9 6 -3 -282 6 -296
6 -10 15 -394 10 -388 -6 7 -16 114 -16 182 0 43 -4 66 -10 62 -5 -3 -10 1
-10 9 0 9 -4 16 -10 16 -6 0 -10 -32 -10 -77 0 -54 3 -73 10 -63 7 11 10 6 10
-20 1 -19 3 -67 6 -107 6 -67 5 -72 -14 -70 -20 1 -22 22 -6 49 5 7 3 8 -7 3
-11 -7 -12 -6 -2 7 7 8 10 18 7 21 -10 9 -18 77 -18 144 0 34 -4 59 -9 56 -5
-3 -6 -55 -3 -120 5 -91 4 -113 -6 -107 -10 6 -11 4 0 -7 6 -7 12 -28 12 -46
0 -25 4 -33 18 -33 14 0 15 -2 2 -10 -8 -5 -10 -10 -3 -10 11 0 12 -16 2 -35
-3 -5 -5 -28 -5 -50 1 -22 -5 -46 -12 -53 -7 -8 -9 -18 -6 -24 4 -6 7 -51 7
-99 0 -49 3 -87 7 -84 4 2 7 -2 7 -10 0 -8 -4 -15 -9 -15 -16 0 -7 -30 10 -31
14 0 14 -2 -3 -9 l-20 -9 20 -1 20 -1 -20 -8 -20 -8 20 -5 20 -6 -20 -1 c-17
-1 -18 -3 -5 -11 8 -5 11 -10 5 -10 -6 0 -9 -23 -9 -52 1 -29 -2 -55 -6 -58
-5 -3 -10 -40 -11 -83 -2 -42 -7 -77 -11 -77 -4 0 -8 -18 -8 -39 0 -22 -4 -42
-9 -46 -6 -3 -8 6 -5 20 2 14 0 25 -4 25 -10 0 -10 -40 1 -57 4 -6 1 -14 -5
-16 -10 -4 -10 -6 0 -6 14 -1 17 -37 3 -45 -5 -3 -7 -16 -4 -29 9 -36 -3 -16
-20 33 -9 25 -30 82 -46 128 -17 46 -37 102 -45 125 -8 23 -25 67 -36 97 -68
174 -156 424 -164 466 -11 63 -33 129 -71 219 -8 17 -23 55 -34 85 -12 30 -19
42 -15 25 3 -16 7 -38 9 -48 2 -9 7 -22 10 -27 3 -5 8 -19 11 -30 2 -11 6 -29
8 -40 3 -11 7 -24 10 -28 3 -5 8 -23 11 -41 3 -19 12 -48 19 -66 8 -19 12 -36
8 -39 -3 -3 1 -6 8 -6 7 0 10 -3 7 -6 -3 -4 -2 -14 3 -24 5 -9 11 -28 14 -41
3 -13 17 -53 31 -88 15 -35 29 -75 31 -89 3 -13 12 -38 20 -53 8 -16 12 -29 9
-29 -3 0 1 -12 8 -27 8 -16 13 -44 12 -63 0 -19 3 -43 7 -52 6 -13 4 -18 -7
-18 -9 0 -14 4 -11 9 3 5 0 11 -8 14 -11 4 -12 -2 -4 -31 5 -20 10 -44 13 -54
2 -9 11 -30 19 -47 15 -28 15 -31 1 -31 -9 0 -13 5 -10 10 3 6 1 10 -5 10 -6
0 -8 5 -5 10 3 6 1 10 -5 10 -6 0 -9 4 -6 9 4 5 3 17 -1 27 -6 15 -8 14 -16
-7 -6 -13 -9 -28 -8 -34 2 -7 -1 -7 -8 0 -5 6 -12 21 -14 35 -3 14 -12 43 -21
65 -10 23 -13 42 -7 48 10 10 -8 86 -45 194 -24 69 -54 174 -56 201 -1 6 -5
12 -10 12 -5 0 -7 4 -4 9 4 5 0 12 -6 14 -10 4 -10 6 0 6 7 1 10 5 7 11 -3 5
-8 19 -11 30 -2 11 -6 30 -9 43 -3 12 -8 51 -11 87 -7 73 -31 179 -45 196 -6
7 -4 16 6 24 13 11 15 10 9 -6 -4 -15 -4 -16 4 -5 12 17 -6 64 -21 54 -6 -3
-7 -1 -4 5 9 13 -2 43 -14 37 -10 -7 -41 50 -32 59 4 3 1 6 -6 6 -7 0 -9 5 -6
11 7 11 -12 96 -26 114 -4 6 -8 26 -8 45 1 19 -1 42 -3 50 -3 8 -8 32 -12 52
-5 24 -15 40 -28 44 -11 3 -17 8 -14 11 2 3 0 17 -6 32 -5 14 -12 37 -13 51
-6 43 -15 84 -27 120 -7 19 -11 38 -10 43 1 4 -4 7 -11 7 -8 0 -7 4 3 10 8 5
10 10 4 10 -5 0 -9 15 -8 33 3 40 -25 169 -65 307 -18 58 -38 130 -47 160 -8
30 -23 82 -33 115 -124 400 -125 404 -147 431 -8 10 -13 13 -9 7 3 -7 8 -21
10 -30 3 -10 9 -36 15 -58 6 -22 12 -47 14 -55 2 -8 11 -35 20 -60 29 -80 29
-81 -11 -76 -42 4 -47 11 -69 93 -10 36 -21 60 -27 56 -6 -3 -7 -1 -3 5 4 7
-3 44 -14 83 -20 66 -23 70 -36 52 -9 -10 -13 -12 -9 -5 3 6 0 12 -7 12 -10 0
-10 2 -1 8 13 8 -4 84 -42 191 -8 24 -13 46 -10 49 2 2 -1 14 -7 26 -7 11 -12
29 -13 38 -1 10 -5 21 -10 25 -4 5 -5 0 -2 -9 4 -12 1 -18 -7 -18 -19 0 -58
93 -43 102 8 5 6 8 -5 8 -10 0 -18 7 -18 15 0 8 5 15 11 15 5 0 7 -4 4 -10 -3
-5 -1 -10 4 -10 6 0 11 2 11 5 0 10 -30 65 -36 65 -2 0 0 -9 6 -20 6 -11 7
-20 3 -20 -16 0 -103 189 -106 228 0 6 -7 12 -16 12 -14 0 -14 2 -1 10 13 8
13 10 -2 10 -11 0 -20 11 -24 27 -4 15 -18 37 -31 49 -12 12 -23 27 -23 33 0
15 -25 41 -39 41 -6 0 -8 7 -5 15 4 8 1 15 -5 15 -6 0 -11 12 -11 28 0 15 -11
45 -23 68 -13 22 -23 48 -21 57 1 9 -2 17 -7 17 -5 0 -8 3 -7 8 3 15 -36 81
-45 75 -12 -7 -27 16 -27 42 0 26 -62 134 -67 118 -9 -25 -50 16 -79 77 -4 8
-17 24 -29 36 -12 11 -27 29 -32 39 -10 18 -53 29 -53 14 0 -4 -10 -5 -22 -2
-18 5 -21 3 -11 -7 12 -13 0 -55 -22 -75 -6 -5 -25 -31 -42 -56 -41 -59 -55
-70 -73 -59 -8 6 -11 10 -7 10 4 0 3 9 -3 20 -13 24 -48 27 -56 5 -5 -12 -9
-13 -21 -4 -11 10 -20 6 -43 -22 -25 -29 -31 -32 -40 -19 -9 13 -13 11 -30
-10 -23 -29 -42 -82 -45 -122 -5 -86 -8 -94 -15 -43 -5 45 -7 48 -16 26 -9
-21 -11 -22 -17 -7 -4 11 -13 16 -22 13 -10 -4 -12 -1 -8 10 4 11 2 14 -5 9
-7 -4 -12 -2 -12 4 0 6 -10 8 -24 4 -14 -3 -34 0 -48 8 -14 9 -47 14 -84 13
-64 -2 -84 -8 -84 -28 0 -16 -41 -62 -62 -70 -10 -3 -17 -3 -17 1 1 4 1 26 0
48 -1 34 -5 43 -23 47 -12 3 -30 2 -40 -4 -12 -6 -18 -6 -18 1 0 5 -9 10 -20
10 -14 0 -20 -7 -20 -24 0 -17 -7 -26 -26 -30 -29 -8 -60 -34 -50 -43 3 -3 -3
-13 -15 -21 -16 -11 -17 -17 -8 -28 9 -11 8 -14 -2 -14 -10 -1 -10 -4 3 -13
13 -10 14 -21 8 -52 -10 -48 -20 -85 -28 -105 -3 -8 -6 -17 -7 -20 -1 -3 -9
-30 -19 -60 -9 -30 -19 -76 -21 -103 -3 -26 -11 -60 -20 -76 -8 -16 -14 -47
-13 -68 2 -33 -6 -105 -18 -166 -2 -10 -6 -45 -10 -76 -3 -31 -8 -60 -11 -64
-3 -4 1 -14 7 -22 11 -13 9 -53 -5 -135 -4 -23 -6 -42 -20 -167 -15 -126 -31
-219 -81 -468 -29 -148 -57 -280 -60 -292 -4 -13 -2 -23 3 -23 5 0 9 -11 9
-25 0 -14 -3 -25 -7 -25 -4 0 -5 -13 -4 -30 1 -16 -1 -30 -6 -30 -4 0 -6 -9
-4 -20 2 -11 0 -20 -5 -20 -5 0 -7 -9 -5 -20 2 -11 0 -20 -6 -20 -5 0 -8 -3
-7 -7 1 -5 -2 -24 -6 -43 -5 -19 -10 -46 -12 -60 -2 -14 -5 -41 -8 -60 -7 -52
-16 -103 -21 -109 -2 -4 -6 -26 -10 -51 -4 -25 -8 -47 -10 -50 -2 -3 -6 -37
-10 -75 -4 -39 -22 -133 -41 -211 -18 -77 -38 -171 -44 -210 -11 -76 -27 -142
-60 -249 -11 -38 -23 -86 -25 -105 -5 -53 -22 -121 -40 -163 -8 -20 -16 -49
-16 -64 -2 -43 -41 -183 -49 -178 -4 3 -10 -4 -13 -15 -3 -11 -1 -18 4 -14 5
3 9 0 9 -5 0 -6 -4 -11 -9 -11 -5 0 -7 -10 -3 -22 3 -14 1 -19 -6 -14 -8 4
-10 2 -6 -8 3 -8 -12 -68 -35 -133 -22 -65 -43 -134 -46 -153 -5 -33 -134
-418 -157 -470 -10 -23 -106 -293 -112 -315 -19 -71 -49 -158 -102 -295 -36
-91 -81 -208 -101 -260 -20 -52 -40 -100 -45 -106 -9 -13 -51 -8 -87 9 -15 7
-76 12 -160 12 -79 0 -139 4 -143 10 -11 15 -161 12 -166 -3 -2 -7 -8 -10 -13
-6 -5 3 -9 1 -9 -3 0 -5 -34 -15 -75 -22 -42 -8 -73 -16 -71 -19 3 -2 20 -8
38 -13 l33 -8 -37 2 c-21 2 -38 -1 -38 -5 0 -4 -57 -8 -127 -9 -119 0 -251
-10 -298 -23 -11 -3 -84 -18 -163 -35 -78 -16 -149 -34 -156 -40 -7 -6 -15 -9
-18 -6 -3 3 -25 -2 -49 -11 -87 -31 -149 -39 -161 -20 -5 7 -8 3 -8 -9 0 -14
-3 -16 -9 -7 -11 18 -104 -17 -136 -52 -13 -14 -28 -26 -34 -26 -5 0 -12 -4
-15 -9 -3 -5 14 -7 39 -5 25 3 45 3 45 0 0 -2 -32 -12 -72 -21 -92 -21 -119
-35 -58 -31 25 2 57 7 73 11 17 4 27 3 27 -3 0 -6 8 -9 18 -8 46 9 146 18 142
13 -3 -4 -77 -36 -165 -72 -87 -37 -184 -79 -215 -95 -40 -20 -61 -25 -72 -19
-11 6 -19 5 -23 -1 -4 -6 -11 -7 -17 -4 -6 4 -8 2 -4 -4 3 -6 -3 -14 -16 -18
-22 -7 -48 -27 -48 -38 0 -3 8 -3 18 0 9 3 4 -2 -11 -11 -16 -9 -35 -14 -43
-11 -8 3 -14 0 -14 -6 0 -6 -3 -9 -6 -5 -8 7 -206 -91 -216 -107 -4 -6 -8 -7
-8 -3 0 4 -6 3 -12 -3 -7 -6 -31 -24 -53 -41 -22 -17 -39 -36 -37 -41 1 -5 -2
-7 -7 -4 -14 9 -42 -4 -35 -16 4 -6 -4 -4 -17 3 -13 7 -28 13 -33 14 -38 1 37
69 136 121 12 7 14 14 8 24 -8 12 -10 11 -10 -5 0 -13 -3 -16 -8 -8 -6 9 -16
7 -40 -8 -18 -10 -37 -17 -43 -14 -5 4 -9 0 -9 -7 0 -15 -63 -68 -80 -68 -7 0
-24 -9 -40 -20 -26 -18 -29 -19 -41 -3 -12 15 -12 16 3 10 12 -4 15 -2 12 8
-4 9 20 27 71 55 42 23 82 48 89 55 7 7 31 22 54 34 38 19 58 51 31 51 -5 0
-7 -6 -3 -12 5 -8 0 -7 -11 2 -10 8 -16 10 -12 4 4 -7 0 -15 -9 -18 -8 -3 -12
-2 -9 4 9 15 -1 12 -47 -11 -49 -25 -70 -44 -60 -54 4 -5 2 -5 -4 -2 -6 4 -56
-19 -110 -50 -87 -50 -125 -75 -184 -120 -95 -74 -172 -137 -205 -168 -286
-271 -320 -311 -489 -572 -36 -57 -70 -103 -75 -103 -19 0 -84 -149 -152 -349
-40 -118 -45 -136 -30 -127 11 7 6 -36 -8 -61 -5 -11 -7 -23 -4 -27 3 -3 -3
-6 -15 -6 -12 0 -22 -5 -22 -11 0 -5 -5 -7 -11 -3 -7 4 -9 0 -5 -14 13 -39 15
-62 6 -62 -4 0 -7 -8 -6 -17 2 -10 -2 -22 -8 -26 -7 -6 -7 -7 2 -5 8 2 13 6
12 8 -2 3 12 29 29 58 17 29 31 57 31 63 0 22 21 48 34 43 12 -5 12 -10 1 -32
-70 -143 -158 -341 -178 -402 -60 -185 -101 -426 -68 -405 5 2 16 -6 25 -19
16 -26 15 -107 -4 -171 -4 -16 -11 -64 -15 -105 -3 -41 -8 -91 -11 -110 -3
-27 -2 -31 5 -15 5 11 10 34 11 50 1 29 2 29 11 7 5 -13 7 -28 3 -33 -3 -5 -1
-9 5 -9 5 0 13 10 17 23 7 21 7 21 15 2 7 -17 8 -16 8 8 1 15 5 27 10 27 5 0
7 -8 6 -17 -2 -10 -6 -53 -9 -97 -2 -45 -9 -82 -16 -86 -6 -4 -10 -16 -9 -26
2 -11 1 -23 -3 -29 -3 -5 -9 -39 -12 -75 -4 -36 -9 -81 -11 -100 -3 -19 -7
-57 -10 -84 -6 -58 -9 -63 -30 -46 -9 8 -15 8 -15 2 0 -6 9 -14 21 -17 17 -6
18 -9 7 -23 -10 -12 -10 -14 0 -8 6 4 12 2 12 -3 0 -6 -4 -11 -8 -11 -4 0 -9
-12 -10 -27 -2 -27 -22 -59 -22 -35 0 24 -30 -2 -31 -27 0 -22 -3 -19 -19 19
-16 38 -27 41 -21 6 1 -5 -4 -13 -11 -17 -9 -6 -9 -9 -1 -9 8 0 11 -29 10 -99
-1 -54 -5 -97 -9 -94 -5 2 -8 12 -9 21 0 14 -2 13 -8 -3 -5 -11 0 -55 11 -105
11 -47 22 -95 24 -107 2 -12 9 -35 15 -50 6 -16 14 -61 19 -102 4 -40 13 -76
18 -80 5 -3 15 -26 22 -51 7 -25 20 -53 31 -63 10 -10 33 -48 49 -85 17 -37
38 -80 47 -97 49 -91 74 -144 84 -180 6 -22 14 -42 18 -45 7 -5 69 -164 73
-190 2 -8 8 -18 13 -22 6 -5 4 -12 -5 -18 -13 -9 -13 -10 0 -10 10 0 25 -26
42 -70 14 -39 24 -70 22 -70 -5 0 -38 63 -39 73 0 4 -4 6 -10 5 -5 -2 -10 -17
-10 -35 0 -17 4 -29 9 -25 5 3 7 -5 4 -16 -4 -12 -3 -20 2 -17 7 4 40 -69 40
-89 0 -4 6 -22 14 -39 43 -95 55 -130 49 -140 -3 -5 -1 -7 4 -4 6 4 13 -2 16
-13 3 -11 1 -20 -3 -20 -5 0 6 -29 25 -65 27 -51 31 -65 19 -65 -19 0 -15 -12
37 -126 22 -48 38 -89 35 -92 -3 -3 -1 -11 5 -19 6 -7 8 -13 5 -13 -4 0 14
-39 40 -87 26 -49 59 -110 73 -138 13 -27 26 -44 28 -37 3 7 13 17 23 22 15 8
17 6 13 -9 -3 -10 0 -22 6 -25 15 -9 14 -22 -2 -38 -8 -7 -17 -26 -21 -42 -6
-26 -6 -28 9 -16 13 11 13 8 -2 -18 -19 -34 -41 -45 -23 -12 16 30 -6 25 -26
-5 -9 -14 -22 -25 -28 -25 -7 0 -13 -7 -14 -15 -1 -8 -3 -22 -4 -30 -1 -8 -4
-13 -6 -10 -3 3 -13 -8 -23 -24 -25 -41 -61 -81 -73 -82 -15 -1 -43 -35 -157
-191 -55 -76 -105 -138 -110 -138 -5 0 -25 -22 -44 -48 -19 -27 -45 -54 -59
-62 -14 -7 -23 -16 -21 -20 3 -5 -2 -10 -10 -14 -21 -8 -19 4 10 58 31 58 10
64 -30 9 -16 -21 -37 -48 -49 -59 -31 -32 -49 -55 -76 -99 -13 -22 -32 -49
-42 -59 -9 -10 -15 -23 -12 -28 3 -4 -6 -22 -20 -38 -13 -17 -28 -39 -31 -50
-4 -11 -10 -18 -14 -15 -5 2 -19 -16 -32 -40 -13 -25 -28 -45 -32 -45 -5 0 -6
-4 -3 -9 3 -5 0 -11 -8 -14 -7 -3 -23 -26 -36 -51 -12 -25 -26 -46 -31 -46 -5
0 -21 -25 -36 -54 -15 -30 -30 -53 -34 -50 -5 3 -17 -13 -29 -36 -11 -22 -25
-40 -31 -40 -6 0 -7 -5 -4 -10 3 -6 2 -10 -4 -10 -6 0 -20 -18 -30 -39 -11
-21 -26 -45 -34 -52 -7 -8 -24 -32 -37 -54 -13 -22 -27 -42 -30 -45 -15 -13
-220 -309 -220 -318 0 -4 -11 -23 -23 -42 -13 -19 -27 -46 -30 -60 -3 -14 -15
-35 -26 -47 -11 -11 -17 -23 -14 -27 3 -3 -2 -8 -11 -12 -9 -3 -13 -10 -10
-15 3 -5 0 -9 -5 -9 -6 0 -10 -3 -10 -7 3 -20 -2 -34 -11 -28 -5 3 -7 0 -5 -7
3 -8 -2 -22 -11 -33 -8 -11 -13 -14 -9 -8 4 9 1 11 -10 7 -12 -5 -13 -9 -4
-20 9 -11 9 -13 -2 -9 -9 3 -24 -11 -42 -41 -15 -25 -23 -43 -17 -39 6 3 7 0
4 -9 -3 -9 -11 -13 -17 -9 -6 3 -7 1 -3 -6 4 -6 1 -25 -8 -41 -8 -16 -11 -32
-7 -34 4 -3 -10 -42 -31 -87 -22 -45 -40 -91 -41 -102 -1 -10 -11 -30 -24 -43
-51 -56 -147 -204 -121 -187 7 4 20 8 28 10 7 1 29 19 48 40 18 21 30 31 26
23 -20 -37 54 37 88 89 47 73 81 105 53 51 -39 -76 -191 -260 -214 -260 -5 0
-29 -31 -52 -70 -43 -70 -80 -101 -40 -35 11 19 17 35 13 35 -9 0 -52 -66 -52
-80 0 -6 -4 -9 -9 -6 -4 3 -17 -2 -27 -10 -10 -9 -12 -13 -4 -9 8 4 6 -1 -4
-9 -11 -9 -16 -16 -12 -16 4 0 -2 -14 -14 -31 -20 -28 -24 -29 -40 -14 -16 14
-19 13 -42 -22 -29 -45 -102 -169 -136 -233 -13 -25 -29 -52 -36 -60 -7 -8
-16 -21 -20 -28 -11 -19 17 -10 32 10 7 9 27 27 45 38 29 20 30 20 9 1 -13
-11 -23 -22 -22 -25 1 -21 -3 -27 -29 -42 -17 -10 -28 -21 -26 -25 3 -4 -2
-10 -11 -13 -9 -4 -14 -9 -11 -12 3 -4 -5 -24 -19 -45 -13 -21 -24 -47 -24
-57 0 -10 -5 -23 -12 -30 -7 -7 -9 -12 -5 -12 3 0 28 33 55 73 27 39 59 80 70
91 21 18 21 18 17 -5 -4 -20 1 -18 29 16 19 22 58 79 88 127 29 49 57 88 62
88 5 0 2 -8 -6 -17 -8 -10 -18 -25 -22 -33 -3 -8 -15 -30 -27 -49 -11 -18 -18
-35 -15 -38 5 -5 85 115 117 177 13 24 25 38 27 31 2 -7 -2 -20 -10 -29 -18
-22 -58 -97 -58 -108 0 -5 10 2 21 16 33 40 12 5 -105 -175 -266 -410 -307
-470 -319 -470 -6 0 -28 -25 -49 -55 -41 -63 -161 -290 -152 -290 3 0 -3 -12
-14 -27 -41 -59 -122 -250 -122 -287 0 -36 11 -38 42 -9 32 30 34 23 13 -36
-12 -36 -12 -41 1 -41 18 0 90 36 99 49 3 6 12 8 19 5 9 -4 13 -19 10 -50 -2
-36 0 -44 14 -44 27 -1 52 -25 50 -48 -2 -11 0 -20 3 -19 3 1 13 -4 21 -10 12
-11 19 -8 39 13 13 14 36 35 51 46 l28 19 -6 -30 c-8 -37 -4 -38 49 -7 23 14
45 25 50 25 4 1 11 1 16 1 5 0 28 16 52 36 40 33 44 35 56 18 11 -14 10 -20
-1 -33 -7 -9 -16 -28 -20 -43 l-6 -27 42 22 c23 12 95 73 160 136 72 70 112
102 103 85 -8 -16 -33 -47 -56 -69 -46 -44 -119 -133 -119 -144 0 -9 37 -7 46
2 4 4 13 2 21 -4 11 -9 42 17 151 127 76 77 183 188 238 248 54 59 117 127
139 150 22 22 39 45 37 49 -1 5 2 6 7 3 9 -6 26 22 22 37 -1 5 2 6 7 3 9 -5
42 28 42 44 0 5 7 13 15 17 7 5 33 33 57 63 77 97 103 121 116 108 13 -13 17
2 4 17 -4 6 -5 9 -3 8 2 -2 9 4 15 13 10 13 12 13 12 -5 0 -11 -5 -17 -10 -14
-5 4 -6 1 -1 -7 7 -11 12 -8 24 10 9 14 24 33 33 42 10 10 15 18 10 18 -4 0 1
5 11 11 13 8 15 14 7 29 -8 15 -6 21 9 30 13 7 22 7 26 0 6 -9 -8 -15 -29 -11
-5 1 -3 -5 4 -14 15 -18 28 -9 35 23 3 17 -1 20 -18 17 -21 -4 -21 -4 -3 10
10 8 22 12 26 10 4 -3 7 3 6 12 0 9 5 18 13 21 10 3 12 0 7 -14 -4 -11 10 -3
33 20 22 22 44 37 47 33 4 -4 1 -13 -6 -22 -7 -8 -9 -15 -4 -14 5 0 44 42 87
93 71 86 91 116 68 101 -5 -3 -12 -1 -16 4 -3 6 3 8 14 6 11 -2 25 3 32 11 10
12 9 13 -4 8 -12 -4 -14 -1 -10 16 4 16 8 18 14 8 7 -11 10 -10 21 1 9 10 9
12 1 7 -8 -4 -6 5 4 23 10 16 21 27 25 25 4 -3 5 3 1 12 -4 11 -3 15 5 10 6
-3 15 2 21 12 7 14 6 19 -4 19 -8 0 -12 -4 -9 -9 5 -7 -3 -10 -22 -7 -4 0 -14
-10 -23 -24 -9 -13 -22 -22 -29 -20 -7 3 -12 1 -11 -4 3 -18 -2 -30 -28 -60
-16 -17 -40 -46 -55 -64 -117 -145 -130 -159 -141 -152 -6 4 -7 1 -2 -7 6 -9
4 -11 -5 -5 -10 6 -7 13 11 27 13 11 17 16 9 12 -8 -4 -6 2 5 13 24 24 51 57
83 98 39 51 66 85 95 117 15 18 27 36 27 40 0 5 4 7 9 4 5 -3 12 2 15 11 13
33 140 192 149 186 5 -3 4 -9 -3 -13 -6 -4 -11 -10 -11 -14 3 -20 0 -26 -11
-20 -7 4 -8 3 -4 -4 4 -6 2 -20 -3 -30 -8 -14 -6 -19 5 -19 7 0 12 2 9 5 -6 6
47 82 86 124 48 52 71 87 56 84 -7 -1 -24 -12 -37 -24 -13 -12 -28 -22 -32
-22 -5 0 -6 -5 -2 -12 4 -7 3 -8 -5 -4 -9 6 -8 14 5 34 20 32 72 99 96 126 10
11 18 24 18 29 0 5 7 4 15 -3 13 -11 14 -10 9 5 -6 14 -4 16 7 10 11 -7 11 -5
-1 10 -14 17 -14 18 8 6 12 -6 22 -8 21 -4 -4 21 2 33 13 27 7 -4 8 -3 4 5 -4
6 -13 8 -19 4 -12 -7 21 52 46 83 9 10 44 57 78 104 34 47 65 89 69 93 4 5 20
1 34 -9 15 -9 26 -13 24 -8 -3 9 54 97 79 122 7 7 13 18 13 23 0 6 12 22 28
36 15 15 20 23 12 19 -8 -4 -6 0 4 8 11 9 16 16 12 16 -4 0 6 19 22 43 16 23
32 51 35 62 l7 20 -15 -20 c-31 -42 -56 -67 -61 -62 -7 6 40 100 60 120 9 8
32 44 53 79 20 34 55 90 78 123 23 33 54 83 70 110 63 110 158 245 174 246 9
0 11 3 4 5 -13 6 13 37 38 47 11 4 11 6 1 6 -8 1 -6 8 7 23 11 11 18 25 15 30
-3 4 0 8 6 8 6 0 8 5 5 10 -3 6 1 10 9 10 9 0 16 7 16 15 0 8 5 15 12 15 6 0
9 3 5 6 -11 11 33 84 51 84 13 0 14 2 4 9 -11 7 -10 9 3 15 9 3 13 10 10 16
-3 5 -1 10 6 10 7 0 10 3 6 6 -3 3 5 24 19 45 13 21 21 39 17 39 -4 0 2 7 13
16 10 8 13 12 5 9 -9 -5 -8 1 4 19 9 14 22 23 28 19 6 -3 7 -1 3 6 -7 10 50
115 78 144 6 6 22 29 35 50 12 20 27 34 33 31 6 -4 8 -3 5 3 -7 11 14 63 26
63 4 0 7 6 7 13 0 23 33 45 63 42 19 -3 25 0 20 8 -4 7 -6 20 -4 31 2 12 -1
16 -10 11 -8 -6 -10 -4 -5 4 5 7 15 10 23 6 13 -4 14 -3 3 10 -11 13 -10 14 6
9 40 -14 53 -34 44 -65 -10 -34 -8 -35 16 -12 13 13 19 14 22 5 2 -6 10 -12
18 -12 7 0 25 -19 40 -41 14 -23 89 -105 167 -183 77 -77 140 -144 139 -147
-1 -4 26 -36 58 -72 33 -36 60 -71 60 -79 0 -8 6 -20 13 -28 6 -8 2 -6 -11 5
-24 20 -56 30 -46 14 9 -16 -19 -10 -40 8 -11 10 -7 2 9 -18 17 -20 34 -36 39
-35 5 0 11 -5 14 -13 3 -9 0 -11 -9 -6 -8 5 -3 -4 10 -18 28 -30 42 -37 20 -9
-8 10 4 -1 26 -23 22 -23 31 -30 20 -16 l-20 26 23 -20 c13 -10 33 -36 44 -57
13 -22 57 -65 103 -100 44 -34 83 -67 87 -73 4 -5 13 -10 20 -10 7 -1 12 -7
10 -14 -3 -14 34 -46 53 -46 6 0 19 -7 31 -15 31 -22 121 -105 104 -95 -57 32
-345 242 -439 320 -141 118 -141 118 -103 62 18 -25 73 -80 124 -122 51 -42
116 -95 143 -118 93 -79 582 -387 614 -387 4 0 17 -9 29 -21 37 -34 633 -309
670 -309 6 0 17 -6 25 -14 7 -8 49 -26 93 -39 43 -14 138 -46 209 -72 72 -25
191 -64 265 -85 73 -22 136 -44 140 -49 3 -5 57 -19 120 -31 63 -12 133 -28
155 -35 58 -19 161 -41 310 -65 72 -12 146 -27 165 -34 19 -8 82 -19 140 -25
58 -7 118 -14 135 -16 16 -2 129 -9 250 -15 121 -7 230 -17 242 -23 21 -10
494 -5 833 8 130 5 382 35 544 65 61 11 126 20 145 20 36 0 375 79 368 86 -2
2 -30 -1 -63 -6 -32 -5 -95 -12 -139 -15 -43 -3 -84 -10 -90 -14 -9 -8 -69
-21 -125 -26 -14 -2 -52 -6 -85 -9 -33 -4 -80 -9 -105 -11 -25 -3 -70 -7 -100
-11 -62 -7 -66 1 -5 10 75 12 100 16 150 26 28 5 65 12 83 15 19 3 71 14 115
25 45 10 89 18 97 17 25 -3 100 14 100 22 0 4 6 8 13 8 27 2 162 46 210 69
l52 25 -75 -6 c-57 -4 -68 -3 -45 5 17 5 44 11 60 14 17 2 37 6 45 9 8 3 70
15 138 26 68 12 160 30 205 42 45 11 96 23 112 25 17 3 59 14 95 24 36 10 85
18 110 18 39 1 85 7 85 12 0 2 24 7 75 15 25 3 64 15 88 25 23 10 42 17 42 15
0 -2 56 16 125 40 69 24 125 42 125 40 0 -13 278 93 389 149 73 37 136 65 139
62 3 -3 -1 -6 -8 -6 -7 0 -11 -3 -8 -6 7 -6 125 52 145 71 7 8 23 17 36 21 12
4 27 14 34 23 7 9 13 12 13 6 0 -6 3 -6 8 1 4 6 35 26 70 44 58 31 84 57 45
44 -15 -5 -15 -4 -3 4 10 8 18 8 27 0 10 -8 12 -7 8 5 -5 11 9 22 51 42 64 30
186 103 194 116 3 5 16 10 28 12 12 2 25 7 29 12 5 4 2 5 -6 0 -10 -6 -12 -4
-7 4 5 7 14 10 22 7 7 -3 16 0 20 6 4 7 3 8 -4 4 -7 -4 -12 -5 -12 -3 0 2 28
23 63 45 34 23 76 52 92 66 29 25 29 25 -27 -3 -32 -16 -58 -28 -58 -26 0 2
37 30 83 61 45 32 117 82 160 111 42 30 75 58 72 63 -3 5 22 25 55 45 33 20
66 44 73 53 12 17 17 20 95 70 72 45 128 85 193 137 76 60 240 219 187 181
-29 -21 -38 -23 -38 -12 0 9 11 18 25 22 13 3 29 12 36 20 14 17 33 19 23 2
-12 -19 14 1 117 87 53 44 132 109 175 145 43 36 103 89 134 118 30 28 58 52
63 52 5 0 6 8 3 17 -4 10 -4 14 0 10 9 -8 44 21 44 37 0 6 -20 29 -45 50 -24
22 -42 43 -39 47 5 8 90 -36 99 -52 4 -5 13 -9 21 -9 11 0 13 6 9 20 -5 16 -3
19 11 13 12 -5 15 -3 9 6 -6 10 -3 11 14 1 12 -6 19 -15 16 -20 -4 -6 1 -7 11
-3 12 4 15 3 10 -5 -4 -7 3 -16 18 -23 13 -6 27 -21 31 -33 4 -13 8 -16 12 -8
2 6 9 12 14 12 6 0 7 -5 3 -12 -4 -6 -3 -8 4 -4 6 3 28 -3 49 -15 21 -12 82
-44 135 -71 54 -27 97 -55 95 -61 -1 -7 6 -11 16 -9 9 2 43 -11 75 -27 38 -21
76 -32 114 -35 31 -2 61 -7 66 -10 5 -3 8 11 7 32 l-2 37 66 -2 c36 -2 100 -5
142 -7 74 -4 77 -3 102 25 14 16 21 29 16 29 -14 0 -11 16 4 18 6 1 37 2 69 3
47 2 55 5 51 18 -4 9 -2 13 2 8 5 -4 18 1 29 12 18 15 74 28 144 33 7 1 10 8
7 16 -5 13 -3 13 12 1 9 -8 14 -9 10 -2 -4 6 -2 13 3 15 10 3 17 22 19 52 1 4
12 5 26 2 18 -5 27 -2 31 9 9 24 -3 30 -32 16 -15 -6 -29 -9 -32 -6 -10 10 33
75 50 75 10 0 18 5 18 11 0 5 4 8 9 5 9 -6 26 22 23 36 -1 5 3 7 10 5 13 -2
16 92 4 112 -4 6 0 11 11 12 17 0 17 1 0 8 -10 4 -18 11 -18 16 0 6 -11 9 -23
7 -24 -3 -24 -1 -23 76 0 43 -3 84 -6 90 -5 7 11 10 45 10 56 -1 88 8 88 24 0
5 -4 6 -10 3 -5 -3 -15 -3 -20 0 -6 4 2 22 20 45 16 21 30 45 30 55 0 9 5 13
11 9 6 -3 10 1 9 12 -1 11 -1 22 0 27 6 19 5 33 -5 39 -6 5 -5 8 3 8 7 0 11 4
7 9 -3 6 9 7 30 4 44 -7 46 3 3 16 -26 7 -28 9 -10 10 12 1 22 6 22 11 0 6 8
10 18 11 12 0 11 3 -7 10 -20 8 -22 14 -17 44 7 33 5 35 -21 36 -20 1 -22 3
-9 6 15 4 16 7 5 14 -11 7 -11 9 4 9 9 0 17 -4 17 -9 0 -5 10 -8 23 -9 20 0
23 5 19 29 -2 16 -9 29 -16 29 -15 0 15 20 31 20 7 0 18 -10 24 -22 15 -28 19
-138 5 -138 -6 0 0 -7 12 -16 18 -12 21 -22 18 -51 -3 -20 -9 -39 -13 -42 -4
-3 -10 -15 -11 -26 -2 -11 -7 -21 -12 -23 -7 -3 32 -52 41 -52 2 0 4 17 5 38
1 20 3 73 5 117 2 60 -3 103 -20 170 -25 102 -78 235 -92 235 -6 0 -6 -7 0
-18 18 -33 21 -72 6 -72 -8 0 -17 5 -21 12 -5 7 -2 9 7 4 8 -4 6 -1 -3 7 -10
8 -15 17 -11 20 3 4 2 7 -4 7 -5 0 -10 6 -10 13 0 6 -4 20 -8 30 -4 10 -3 17
4 17 7 0 11 6 10 13 -1 6 1 20 5 29 8 18 -51 138 -67 138 -4 0 -6 -4 -2 -9 3
-5 1 -12 -4 -15 -5 -4 -12 2 -16 13 -10 31 -45 71 -63 71 -15 0 -15 -2 -2 -10
10 -6 11 -10 2 -10 -6 0 -11 -3 -11 -7 5 -31 -6 -17 -36 46 -33 69 -37 91 -14
91 15 0 48 -61 44 -81 -3 -12 2 -19 12 -19 11 0 13 5 8 18 -4 9 -8 23 -8 30 0
6 -3 12 -7 12 -11 0 -9 44 2 51 8 5 6 12 -5 24 -10 9 -17 20 -17 25 0 5 -7 6
-17 3 -11 -4 -14 -3 -9 5 4 7 3 12 -2 12 -5 0 -15 14 -22 31 -8 19 -18 28 -27
25 -8 -4 -20 -6 -26 -7 -7 -1 -1 -5 13 -9 21 -7 22 -8 5 -10 -17 -2 -16 -3 5
-10 24 -8 24 -8 2 -9 -17 -1 -28 11 -49 54 -15 30 -34 55 -43 56 -10 0 -9 3 5
9 17 7 16 9 -10 10 -30 2 -30 2 -5 10 25 8 25 8 -5 10 -21 1 -25 3 -14 8 14 6
15 9 3 20 -8 7 -14 8 -14 2 0 -21 -17 -9 -33 25 -20 43 -21 45 -4 45 7 0 22 6
32 14 18 13 17 15 -15 57 -19 24 -58 70 -86 101 l-52 57 28 95 c16 52 31 109
35 128 11 59 16 93 18 116 0 12 4 22 7 22 4 0 7 7 7 15 0 62 -64 -105 -69
-182 -2 -17 -9 -16 -35 2 -19 14 -21 13 -25 -10 -4 -20 -1 -25 16 -25 17 0 18
2 6 10 -13 9 -13 10 0 10 8 0 22 -5 30 -10 11 -7 11 -10 2 -10 -7 0 -10 -5 -6
-11 4 -8 -1 -9 -17 -4 -17 4 -20 4 -10 -4 17 -11 24 -41 10 -41 -5 0 -8 -3 -7
-7 1 -5 -2 -20 -6 -35 -6 -21 -11 -25 -21 -15 -9 9 -10 14 -1 19 7 5 5 8 -6 8
-23 0 -43 37 -29 54 6 7 8 16 4 19 -3 4 -2 7 4 7 5 0 10 7 11 15 1 8 3 22 4
30 1 8 6 15 12 15 6 0 4 5 -4 10 -11 7 -11 10 -2 10 7 0 10 5 7 10 -3 6 -2 10
4 10 5 0 11 -10 13 -22 2 -12 9 -23 17 -26 8 -3 11 0 7 7 -4 6 -1 11 6 11 9 0
9 3 -2 10 -12 8 -12 10 5 10 19 1 19 1 2 11 -9 6 -15 14 -12 20 4 5 1 9 -4 9
-6 0 -11 -4 -11 -10 0 -5 -7 -10 -16 -10 -14 0 -14 2 0 15 9 10 26 14 43 11
l28 -6 -27 12 c-34 14 -37 38 -5 39 16 1 18 2 5 6 -22 6 -24 42 -2 50 11 4 12
8 4 13 -15 9 -4 30 14 30 21 0 27 48 7 53 -12 4 -11 5 4 6 17 1 18 3 5 11 -13
9 -13 10 0 10 13 0 13 1 0 10 -11 7 -11 10 -2 10 7 0 10 5 7 10 -3 6 -2 10 4
10 5 0 8 9 6 20 -2 11 2 20 8 20 8 0 7 3 -2 9 -10 6 -5 11 20 17 49 11 53 11
60 -6 8 -21 27 95 35 218 5 80 4 102 -6 102 -8 0 -10 -3 -7 -6 9 -9 -11 -44
-26 -44 -7 0 -6 4 3 10 13 9 13 10 0 10 -13 0 -13 1 0 10 13 9 13 10 0 10 -9
0 -11 3 -5 8 6 4 10 65 10 150 -1 92 3 142 10 142 5 0 3 5 -5 10 -13 9 -13 10
0 10 13 0 13 1 0 10 -11 7 -11 10 -2 10 7 0 10 5 7 10 -4 6 -3 10 2 9 11 -3
63 19 63 26 0 4 -8 4 -18 1 -14 -5 -18 -1 -18 16 -1 62 -17 427 -22 531 -4 66
-3 121 1 124 8 5 2 100 -9 156 -6 31 -12 90 -19 182 -4 44 -13 101 -20 127 -7
25 -11 49 -8 52 4 3 0 6 -8 6 -9 0 -15 10 -15 23 -1 30 -13 97 -19 108 -7 11
-14 129 -8 129 2 0 13 -5 23 -10 17 -9 18 -8 13 7 -4 10 -14 24 -22 31 -9 8
-11 11 -5 8 11 -5 11 160 0 171 -3 4 -6 -8 -6 -25 0 -16 -3 -32 -7 -35 -5 -2
-1 -2 7 0 10 2 8 -2 -4 -12 -14 -11 -16 -15 -5 -15 12 0 12 -2 -1 -10 -11 -7
-11 -10 -2 -10 7 0 11 -4 8 -9 -4 -5 0 -12 6 -14 7 -3 4 -6 -7 -7 l-20 -1 20
-9 c19 -8 19 -9 -2 -9 -18 -1 -23 5 -24 27 0 15 -2 34 -4 42 -9 35 -14 59 -19
91 -3 19 -19 104 -36 189 -29 146 -34 174 -44 260 -3 19 -7 46 -11 60 -16 62
-14 80 11 80 18 0 22 4 19 22 -3 12 -9 26 -14 31 -5 5 -7 15 -5 21 3 7 -2 28
-11 47 l-16 34 3 -42 c3 -29 -1 -43 -9 -43 -6 0 -10 9 -8 20 2 11 0 20 -5 20
-5 0 -7 9 -5 20 2 11 -2 20 -8 20 -7 0 -6 4 3 10 8 5 10 10 3 10 -6 0 -10 8
-9 18 2 9 -2 20 -8 24 -7 5 -3 8 9 9 l20 0 -20 9 -20 9 20 1 c17 2 16 3 -5 10
l-25 8 25 1 c18 1 21 4 12 10 -8 4 -13 11 -13 15 3 20 -1 26 -16 26 -15 0 -16
2 -3 10 12 8 12 10 -5 11 l-20 0 20 9 c18 8 18 9 2 9 -10 1 -15 6 -12 11 3 6
2 10 -4 10 -5 0 -8 9 -6 20 2 11 -2 20 -8 20 -7 0 -6 4 3 10 11 7 11 10 2 10
-7 0 -10 5 -7 10 3 6 0 10 -7 10 -9 0 -9 3 2 10 13 9 13 10 0 10 -13 0 -13 1
0 10 11 7 11 10 2 10 -7 0 -10 4 -7 10 3 5 2 10 -4 10 -5 0 -8 9 -6 20 2 11 0
20 -5 20 -4 0 -7 8 -6 18 2 9 -2 20 -8 24 -7 5 -6 8 4 8 14 0 16 9 19 75 2 42
-3 75 -12 75 -4 0 -5 5 -2 10 3 6 0 10 -7 10 -9 0 -9 3 2 10 11 7 11 10 2 10
-8 0 -10 5 -6 13 4 6 3 8 -2 4 -10 -10 -14 -57 -4 -57 4 0 6 -13 5 -30 -1 -17
2 -30 9 -30 6 0 4 -5 -4 -10 -8 -5 -19 -10 -25 -10 -5 0 -3 5 5 10 11 7 11 10
2 10 -7 0 -10 5 -7 10 3 6 0 10 -7 10 -9 0 -9 3 2 10 11 7 11 10 2 10 -7 0
-10 5 -7 10 3 6 0 10 -7 10 -9 0 -9 3 2 10 11 7 11 10 2 10 -7 0 -10 5 -7 10
3 6 1 10 -5 10 -6 0 -8 5 -5 10 3 6 0 10 -7 10 -9 0 -9 3 2 10 11 7 11 10 2
10 -7 0 -10 5 -7 10 3 6 0 10 -7 10 -9 0 -9 3 2 10 11 7 11 10 2 10 -7 0 -10
5 -7 10 3 6 1 10 -5 10 -6 0 -8 5 -5 10 3 6 2 10 -3 10 -5 0 -9 6 -10 13 -2
30 -13 60 -41 111 -32 60 -51 146 -32 146 13 0 -2 35 -26 59 -12 11 -12 15 -1
22 10 7 9 9 -4 9 -10 0 -15 7 -14 18 2 9 -4 23 -13 30 -9 8 -10 10 -2 7 9 -5
8 0 -3 18 -17 25 -25 50 -30 97 -5 32 -126 418 -163 517 -3 6 6 13 19 16 21 4
21 4 -4 6 -27 1 -29 4 -54 96 -2 6 -15 38 -29 73 -14 34 -23 67 -20 72 3 6 2
10 -4 10 -10 0 -37 76 -33 93 1 4 -2 7 -7 7 -5 0 -15 17 -21 38 -13 39 -46
121 -87 210 -26 58 -24 72 10 66 20 -4 20 -4 2 4 -11 5 -25 7 -31 5 -6 -2 -11
2 -12 9 -6 44 -9 58 -20 71 -10 12 -9 16 4 21 11 4 15 2 11 -8 -3 -8 1 -17 9
-20 10 -4 13 1 10 17 -3 12 -5 26 -5 32 -1 5 -6 4 -13 -3 -7 -7 -19 -12 -27
-12 -14 0 -14 1 -1 10 12 8 12 10 -5 10 -17 0 -17 2 -5 10 13 8 13 10 -2 10
-11 0 -15 7 -14 25 2 13 0 22 -4 20 -4 -3 -40 59 -80 138 -39 78 -77 147 -83
152 -24 20 -77 93 -86 119 -6 14 -15 26 -20 26 -5 0 -22 21 -38 48 -43 69
-164 276 -208 356 -37 66 -37 68 -14 61 21 -7 22 -6 10 8 -7 9 -17 14 -22 11
-5 -3 -6 2 -3 10 3 9 -5 20 -23 31 -24 14 -25 15 -4 9 21 -5 22 -4 10 9 -8 8
-21 12 -29 10 -10 -3 -9 -1 2 7 17 10 17 13 1 43 -9 18 -16 35 -15 40 1 4 -3
7 -10 7 -6 0 -8 3 -5 7 4 3 -7 30 -23 58 -17 29 -30 61 -30 72 0 27 -29 83
-42 83 -6 0 -8 3 -5 7 4 3 1 13 -7 22 -8 9 -28 51 -46 93 -17 43 -36 80 -41
84 -5 3 -9 10 -9 16 0 6 14 -8 30 -30 17 -23 30 -44 30 -48 0 -13 64 -97 67
-87 2 5 -23 61 -55 124 -132 255 -174 335 -184 347 -8 9 -7 11 6 6 9 -3 16 -3
16 1 0 7 -108 203 -188 340 -20 34 -35 74 -36 92 0 18 -3 28 -6 23 -3 -5 -44
55 -90 133 -46 78 -103 174 -126 212 -23 39 -54 94 -69 124 -15 30 -59 106
-98 170 -75 123 -237 401 -237 407 0 2 -24 44 -54 92 -29 48 -63 105 -75 127
-12 22 -31 55 -43 74 -19 29 -19 34 -5 28 22 -8 21 -6 -5 39 -17 29 -19 39 -9
42 10 3 7 9 -10 19 -13 8 -16 12 -6 9 16 -5 16 -4 1 19 -9 14 -20 22 -26 19
-5 -3 -8 2 -6 12 2 10 -3 19 -9 20 -7 1 -23 2 -35 3 -19 2 -20 4 -6 9 16 6 16
9 -3 40 -12 17 -26 32 -32 32 -8 0 -7 -4 2 -9 9 -6 10 -11 2 -15 -12 -8 -45
50 -36 64 3 5 12 7 20 3 8 -3 15 -2 15 1 0 14 -33 56 -43 56 -7 0 -7 -4 1 -12
14 -14 16 -38 3 -38 -10 0 -71 79 -71 93 0 4 7 1 16 -8 9 -9 18 -14 21 -11 5
5 -18 48 -32 58 -7 5 -7 8 0 8 6 0 1 7 -9 15 -11 8 -14 15 -7 15 6 0 1 10 -12
23 -14 12 -32 39 -40 60 -10 23 -23 37 -34 37 -15 0 -16 -2 -3 -10 8 -5 11
-10 6 -10 -5 0 -3 -7 4 -15 7 -8 9 -15 4 -15 -5 0 -24 24 -43 53 -19 28 -52
75 -74 104 -21 29 -36 57 -32 63 3 5 1 10 -5 10 -6 0 -27 27 -48 59 -20 32
-41 59 -47 60 -5 1 -10 5 -10 9 0 5 -8 16 -18 26 -9 10 -22 27 -29 39 -10 19
-9 21 4 9 10 -8 19 -9 22 -3 3 5 -6 14 -21 19 -16 6 -22 11 -15 11 7 1 10 6 7
11 -4 6 -10 8 -15 5 -10 -6 -46 54 -117 196 -51 103 -82 149 -99 149 -4 0 -3
-5 4 -12 7 -7 12 -18 12 -26 0 -15 -49 53 -95 133 -16 28 -49 76 -74 107 -25
32 -46 63 -46 70 0 7 -4 15 -10 18 -5 2 -23 20 -40 40 -16 19 -60 66 -97 104
-37 38 -65 73 -62 78 3 4 1 8 -4 8 -14 0 -62 77 -69 110 -3 17 -10 27 -16 23
-6 -4 -8 0 -4 11 4 9 3 15 -2 11 -5 -3 -21 9 -36 27 -15 18 -33 33 -41 35 -8
2 -22 5 -31 6 -25 5 -83 -32 -94 -60 -6 -16 -15 -23 -24 -19 -16 6 -9 -13 30
-85 8 -14 12 -29 8 -33 -3 -3 0 -17 7 -31 11 -21 11 -28 1 -38 -10 -9 -15 -9
-18 0 -2 7 -18 29 -35 50 -16 21 -40 58 -53 83 -13 25 -35 56 -49 69 -14 13
-23 27 -21 32 3 4 -9 19 -27 32 -39 29 -98 51 -98 36 0 -6 -7 -6 -19 1 -25 13
-31 13 -31 0z m130 -170 c6 -11 9 -20 7 -20 -2 0 -12 9 -22 20 -10 11 -13 20
-7 20 6 0 16 -9 22 -20z m130 -75 c12 -22 15 -32 7 -22 -8 9 -20 17 -27 17 -7
0 -11 3 -7 6 3 4 -3 25 -14 48 -20 41 -20 41 0 16 11 -14 30 -43 41 -65z m-52
-21 c-4 -3 -12 5 -18 18 -12 22 -12 22 6 6 10 -10 15 -20 12 -24z m1382 -1354
c0 -5 -2 -10 -4 -10 -3 0 -8 5 -11 10 -3 6 -1 10 4 10 6 0 11 -4 11 -10z m207
-316 c-3 -3 -12 -4 -19 -1 -8 3 -5 6 6 6 11 1 17 -2 13 -5z m-2738 -437 c13
-39 25 -78 28 -84 3 -7 1 -13 -4 -13 -5 0 -20 38 -34 85 -32 103 -23 114 10
12z m298 -653 c-3 -3 -12 -4 -19 -1 -8 3 -5 6 6 6 11 1 17 -2 13 -5z m30 -90
c-3 -3 -12 -4 -19 -1 -8 3 -5 6 6 6 11 1 17 -2 13 -5z m6 -21 c-7 -2 -19 -2
-25 0 -7 3 -2 5 12 5 14 0 19 -2 13 -5z m10 -20 c-7 -2 -21 -2 -30 0 -10 3 -4
5 12 5 17 0 24 -2 18 -5z m0 -20 c-7 -2 -19 -2 -25 0 -7 3 -2 5 12 5 14 0 19
-2 13 -5z m17 -28 c0 -8 0 -17 0 -20 0 -3 7 -19 15 -35 9 -17 13 -30 10 -30
-3 0 -1 -9 5 -21 6 -11 13 -29 15 -40 2 -12 7 -29 10 -39 5 -15 2 -17 -15 -13
-25 7 -28 11 -35 53 -3 18 -10 41 -15 50 -5 10 -6 20 -3 24 3 3 2 6 -3 6 -5 0
-10 8 -11 18 -2 31 -8 47 -18 54 -5 4 2 8 18 8 17 0 27 -5 27 -15z m985 -765
c-2 -11 0 -20 6 -20 5 0 9 -5 9 -11 0 -5 -6 -7 -12 -3 -9 5 -8 2 1 -9 8 -10
16 -35 18 -55 14 -155 14 -182 4 -182 -10 0 -16 35 -12 68 2 11 -8 66 -25 137
-1 6 -5 25 -9 44 -3 19 -8 38 -11 43 -3 4 4 8 15 8 14 0 19 -5 16 -20z m-3397
-278 c-11 -39 -26 -73 -33 -76 -9 -3 -9 5 1 32 7 21 13 44 14 52 0 8 5 33 11
54 8 30 13 36 19 25 6 -9 1 -43 -12 -87z m3435 -74 c3 -21 1 -38 -4 -38 -5 0
-9 19 -9 42 0 49 6 47 13 -4z m2258 -65 c13 -16 12 -17 -3 -4 -10 7 -18 15
-18 17 0 8 8 3 21 -13z m-4596 -200 c4 -21 11 -51 17 -68 5 -16 12 -43 15 -60
3 -16 27 -78 55 -137 47 -102 53 -131 25 -124 -7 1 -9 1 -4 -1 4 -3 5 -9 1
-14 -3 -5 5 -9 18 -10 22 0 22 -1 3 -9 -11 -5 -15 -9 -9 -9 6 -1 11 -7 12 -13
3 -34 21 -78 32 -78 4 0 2 21 -6 47 -20 67 -2 40 26 -37 13 -36 45 -110 71
-165 26 -55 62 -140 78 -190 17 -49 46 -133 65 -185 40 -105 42 -114 24 -105
-7 4 -4 -1 6 -9 15 -12 16 -16 5 -17 -8 0 -4 -4 8 -9 15 -6 21 -15 18 -30 -2
-11 0 -20 4 -20 5 0 12 -12 15 -26 12 -45 90 -239 98 -242 5 -2 6 -7 3 -12 -6
-10 28 -116 54 -168 12 -23 21 -48 21 -56 0 -17 43 -157 71 -231 11 -27 21
-59 23 -71 2 -11 11 -36 18 -55 8 -18 16 -38 18 -44 2 -5 9 -14 16 -20 12 -10
57 -137 57 -162 0 -7 4 -13 9 -13 5 0 7 -4 3 -9 -3 -5 -1 -12 5 -16 6 -4 8
-11 5 -16 -4 -5 -2 -9 2 -9 5 0 9 -8 10 -19 1 -10 9 -36 19 -57 9 -21 16 -42
16 -46 -1 -5 3 -8 9 -8 5 0 7 -4 4 -10 -3 -5 -1 -10 5 -10 7 0 10 -6 7 -14 -3
-8 -1 -16 4 -18 5 -2 11 -13 12 -26 0 -12 4 -22 8 -22 4 0 12 -13 19 -30 7
-16 16 -27 21 -24 5 3 6 -3 2 -12 -4 -12 -3 -15 5 -10 7 4 12 1 13 -6 4 -53 9
-71 33 -123 29 -62 63 -153 73 -192 3 -13 9 -23 13 -23 4 0 13 -18 20 -40 7
-21 18 -37 23 -33 6 3 7 1 3 -6 -10 -15 13 -43 28 -34 6 4 4 -2 -4 -12 -14
-17 -14 -18 10 -5 22 12 24 12 12 -2 -8 -10 -9 -19 -3 -22 5 -3 11 -1 13 6 3
7 7 5 11 -6 4 -10 3 -15 -3 -11 -17 10 -11 -13 15 -65 14 -28 21 -50 16 -50
-5 0 -17 20 -27 45 -9 25 -21 48 -26 52 -6 3 -5 -4 1 -16 7 -11 9 -21 6 -21
-2 0 4 -23 15 -50 11 -28 20 -55 20 -60 0 -11 -62 9 -72 24 -4 6 -8 7 -8 3 0
-5 -12 -2 -27 6 -16 8 -47 23 -70 33 -22 10 -39 23 -35 28 3 5 -2 7 -11 3 -9
-3 -67 18 -139 52 -211 100 -685 268 -838 297 -88 17 -264 64 -370 99 -110 36
-325 83 -404 87 -71 4 -68 0 19 -26 60 -18 23 -15 -93 8 -84 16 -104 15 -110
-5 -3 -11 -1 -11 7 1 12 17 14 10 5 -14 -3 -9 -11 -13 -16 -10 -6 4 -8 -3 -4
-17 3 -13 3 -18 0 -10 -5 11 -8 11 -16 0 -8 -11 -9 -10 -4 4 7 22 -17 23 -35
0 -12 -14 -12 -16 1 -9 8 4 4 -2 -9 -13 -13 -12 -20 -21 -17 -21 4 0 1 -10 -6
-22 -7 -13 -13 -26 -14 -30 -1 -5 -3 -11 -4 -15 -1 -5 -2 -11 -2 -15 1 -3 -5
-9 -13 -12 -8 -3 -15 -2 -15 2 0 8 129 408 174 542 18 52 43 128 55 167 12 40
30 78 40 85 23 17 63 128 67 185 1 25 6 62 10 82 4 20 7 39 6 44 -1 4 5 7 14
7 10 0 14 6 10 15 -3 8 0 15 7 15 8 0 6 4 -3 10 -8 5 -10 10 -4 10 6 0 11 6
11 13 1 31 30 141 43 166 14 26 40 113 40 135 1 27 39 107 40 83 0 -10 -4 -26
-9 -36 -9 -16 2 -52 12 -41 6 7 63 185 76 235 5 22 24 81 41 130 17 50 40 126
51 170 11 44 31 114 44 155 14 41 27 91 29 110 7 56 17 90 27 90 5 0 9 8 9 18
0 9 10 29 23 44 13 15 32 55 42 90 10 35 25 70 32 80 8 9 10 18 5 22 -5 3 -6
23 -2 44 9 53 102 312 112 312 4 0 10 -17 13 -37z m3705 -30 c0 -4 10 -19 21
-33 11 -14 18 -19 14 -12 -7 14 11 17 20 2 3 -5 8 -20 10 -32 3 -12 8 -24 12
-27 5 -3 25 -46 45 -96 51 -125 183 -430 213 -490 35 -71 195 -442 195 -454 0
-5 6 -11 14 -14 15 -6 53 -79 60 -117 2 -14 23 -60 45 -104 23 -43 41 -85 41
-92 0 -7 8 -18 18 -23 9 -6 13 -11 7 -11 -6 0 -5 -3 1 -8 14 -9 58 -102 57
-119 0 -7 4 -13 10 -13 6 0 7 -3 4 -7 -4 -3 0 -17 9 -30 13 -20 13 -27 2 -41
-9 -11 -10 -14 0 -8 7 4 12 2 12 -6 0 -7 9 -19 20 -26 20 -12 20 -12 5 24 -8
20 -13 40 -10 44 3 5 2 10 -3 12 -4 1 -22 47 -40 100 -48 144 -46 135 -33 118
6 -8 11 -12 11 -8 0 9 -61 160 -91 226 -18 40 -79 201 -79 210 0 2 9 1 20 -3
15 -5 18 -3 14 9 -3 9 -9 14 -13 11 -4 -2 -8 2 -8 10 0 8 4 15 9 15 11 0 39
-70 32 -81 -3 -5 0 -9 6 -9 7 0 10 -7 6 -15 -3 -8 -1 -15 4 -15 6 0 22 -26 36
-57 14 -32 32 -71 39 -88 7 -16 23 -59 35 -95 12 -36 35 -95 51 -133 17 -37
27 -73 23 -79 -4 -6 -3 -8 4 -5 11 7 54 -104 91 -233 11 -41 36 -119 55 -173
19 -53 31 -95 26 -92 -5 3 -4 -7 1 -22 5 -16 14 -47 19 -70 6 -23 17 -49 26
-58 12 -11 12 -15 2 -15 -8 -1 -7 -4 4 -11 16 -9 31 -48 60 -159 6 -25 11 -48
10 -52 -1 -5 3 -8 10 -8 6 0 9 -3 6 -6 -4 -3 -2 -20 4 -37 9 -31 17 -69 20
-94 1 -7 4 -13 8 -13 6 0 10 -16 11 -52 0 -10 5 -18 11 -18 6 0 8 -9 5 -20 -3
-11 -2 -18 3 -15 10 6 23 -42 15 -55 -4 -6 -2 -10 2 -10 5 0 9 -8 10 -17 2
-33 92 -398 103 -416 9 -15 111 -436 135 -553 26 -131 83 -475 104 -629 11
-77 38 -248 60 -380 37 -217 47 -273 67 -370 3 -16 7 -39 8 -50 2 -11 6 -27 9
-35 6 -18 24 -140 32 -235 4 -38 9 -79 11 -90 2 -11 4 -107 4 -212 1 -110 5
-195 11 -198 5 -4 9 -60 9 -126 0 -112 2 -123 25 -157 14 -20 25 -43 25 -50 0
-7 -11 -1 -25 14 l-25 27 0 -30 c0 -20 11 -39 36 -64 38 -36 60 -69 46 -69 -4
0 -37 24 -73 53 -35 29 -89 70 -119 92 -54 40 -54 39 24 -40 95 -96 189 -213
193 -238 3 -17 2 -17 -24 2 -50 35 -298 260 -425 384 -27 26 -57 47 -66 47
-10 0 -24 6 -31 13 -12 10 -13 8 -8 -8 4 -12 -6 -5 -28 19 -19 22 -33 41 -30
44 2 3 -1 14 -7 26 -7 11 -12 24 -13 28 0 8 -118 121 -275 263 -69 62 -134
123 -145 136 -11 13 -13 18 -5 12 21 -19 33 -16 27 7 -8 32 23 9 79 -57 27
-32 42 -53 34 -47 -8 6 -35 25 -60 43 -26 19 -2 -8 55 -63 55 -53 104 -96 108
-96 5 0 25 -16 45 -37 21 -20 67 -58 105 -85 37 -27 67 -53 67 -58 0 -5 9 -12
20 -15 11 -3 20 -12 20 -19 0 -8 14 -19 30 -26 17 -7 35 -21 41 -32 6 -11 17
-17 25 -14 8 3 13 2 10 -3 -14 -21 56 -28 73 -7 9 11 -4 27 -66 80 -242 205
-280 238 -303 263 -32 35 -199 168 -260 207 -49 32 -104 76 -184 147 -44 39
-158 131 -249 200 -50 38 -42 10 14 -47 57 -59 38 -58 -36 1 -22 18 -53 41
-70 51 l-30 19 23 -32 c13 -18 29 -33 37 -33 15 0 69 -60 61 -68 -3 -3 -11 0
-18 5 -7 5 -21 13 -31 16 -15 6 -16 3 -7 -12 5 -11 22 -28 37 -39 16 -11 25
-24 21 -27 -4 -4 -21 7 -38 24 -17 17 -38 31 -46 31 -8 0 -17 7 -20 15 -4 8
-10 12 -15 9 -5 -3 -6 2 -3 10 4 9 -1 18 -10 22 -9 3 -14 10 -11 14 3 4 -2 10
-10 13 -12 5 -12 2 -3 -18 6 -13 15 -22 21 -18 6 3 7 1 3 -6 -9 -14 -83 35
-92 62 -3 9 -9 15 -14 12 -4 -3 -16 8 -25 23 l-18 27 23 -20 23 -20 -12 24
c-9 16 -10 26 -3 33 6 6 8 17 5 26 -5 11 -3 13 8 7 8 -5 -3 10 -23 33 -21 23
-38 47 -38 53 0 8 -4 9 -13 0 -8 -6 -18 -7 -23 -3 -5 4 -1 -3 9 -15 12 -13 14
-23 8 -27 -7 -4 -7 -15 -1 -31 6 -16 5 -25 -3 -29 -7 -2 -4 -5 6 -5 9 -1 17
-5 17 -10 0 -5 3 -17 7 -27 3 -9 -21 9 -55 42 -34 32 -62 66 -62 74 0 12 -2
12 -9 2 -6 -11 -10 -11 -18 0 -19 23 -45 80 -34 74 6 -4 11 -2 11 3 0 6 -4 11
-8 11 -4 0 -8 9 -9 21 -2 20 -1 20 25 4 15 -9 35 -26 45 -37 9 -11 17 -16 17
-10 0 10 -14 22 -78 70 -12 9 -25 31 -28 47 -3 17 -9 34 -15 40 -16 16 -10 26
10 16 10 -6 22 -7 27 -3 5 4 2 -2 -6 -13 -8 -11 -10 -17 -5 -12 4 4 17 0 27
-10 19 -17 25 -39 8 -28 -6 3 -7 -1 -4 -9 3 -9 21 -25 40 -37 19 -11 41 -34
49 -49 20 -38 19 -45 -2 -29 -16 13 -17 12 -4 -4 19 -24 37 -7 22 21 -6 10 -8
22 -5 24 2 3 -14 22 -36 42 -22 20 -38 36 -35 36 3 0 1 9 -4 19 -9 17 -8 18
12 13 19 -5 18 -2 -10 27 -18 18 -33 40 -33 49 0 9 -8 26 -17 37 l-16 20 8
-20 c12 -35 14 -56 4 -50 -5 4 -9 12 -9 19 0 7 -7 21 -15 32 -14 18 -14 17 -5
-8 21 -60 -38 -12 -74 60 -13 26 -36 76 -51 112 -14 36 -33 70 -40 75 -7 6
-29 38 -49 72 -20 33 -43 64 -52 67 -9 3 -14 13 -10 21 3 8 1 14 -5 12 -11 -2
-70 129 -61 137 3 4 -1 6 -8 6 -7 0 -10 3 -7 6 3 4 2 15 -4 25 -7 14 -6 19 3
20 7 0 4 4 -7 9 l-20 9 20 1 20 1 -20 9 -20 9 20 0 c17 1 17 3 5 11 -12 8 -10
10 10 11 l25 1 -25 8 c-18 6 -20 8 -7 9 10 1 16 5 12 10 -3 5 -1 12 5 16 7 4
7 12 0 24 -5 10 -7 20 -5 23 2 2 -24 3 -59 2 -63 -3 -63 -3 -79 32 -18 37 -20
35 30 50 10 2 10 9 1 28 -6 14 -16 22 -22 19 -6 -4 -4 2 4 12 14 17 13 18 -5
11 -16 -6 -17 -5 -8 5 8 8 9 18 2 31 -6 10 -6 18 0 18 5 0 11 -7 15 -15 6 -17
26 -20 26 -4 0 5 -5 7 -12 3 -7 -5 -8 -3 -3 6 6 10 12 7 25 -9 l16 -23 -2 32
c-1 17 -10 37 -20 44 -9 7 -19 23 -21 34 -3 21 -142 333 -153 342 -3 3 -7 16
-8 30 -2 14 -8 30 -12 35 -5 6 -21 44 -36 85 -25 70 -25 74 -8 87 10 7 15 13
12 13 -4 0 -2 15 3 33 6 17 11 37 12 42 2 6 6 16 10 23 5 7 21 51 37 98 28 82
31 112 9 99 -5 -4 -9 -2 -9 4 0 17 54 136 66 146 23 19 52 78 46 93 -4 11 -2
13 8 7 8 -5 11 -4 7 2 -8 12 30 118 68 194 14 27 25 51 25 54 -2 14 35 115 41
115 4 0 6 12 3 26 -4 21 -1 25 10 21 11 -4 18 1 22 18 3 14 10 25 16 25 5 0 7
4 4 9 -3 5 1 14 9 21 10 9 15 9 15 1 0 -6 -6 -11 -12 -12 -9 0 -9 -2 -2 -5 12
-5 7 -44 -5 -44 -4 0 -7 -10 -6 -22 1 -13 -3 -32 -9 -43 -5 -11 -11 -22 -11
-25 -1 -3 -7 -30 -13 -60 -20 -85 -21 -90 -13 -90 15 0 103 246 116 326 4 22
13 60 21 85 8 25 16 54 19 65 2 10 9 35 15 54 5 19 13 62 16 95 3 33 9 77 14
98 4 20 4 37 0 37 -8 0 -6 75 4 115 2 11 5 26 5 34 1 8 8 11 20 8 13 -3 18 0
16 12 -1 9 5 22 14 29 12 10 12 12 1 6 -13 -7 -13 -5 -2 8 7 9 15 27 17 39 3
13 7 35 10 49 3 14 7 54 10 90 3 36 7 79 10 95 18 118 20 143 25 345 1 52 8
129 15 170 7 41 11 78 9 81 -4 8 -4 251 1 414 2 72 1 124 -2 117 -2 -6 -10 -9
-16 -5 -9 5 -9 3 -2 -8 6 -8 8 -39 5 -69 -4 -47 -6 -51 -13 -28 -4 16 -7 60
-6 99 l2 71 23 -26 c13 -14 24 -29 24 -33z m440 -608 c0 -5 -5 -3 -10 5 -5 8
-10 20 -10 25 0 6 5 3 10 -5 5 -8 10 -19 10 -25z m37 -81 c-3 -3 -12 9 -21 27
-22 45 -20 50 5 11 12 -18 19 -35 16 -38z m23 -37 c0 -7 6 -23 13 -37 18 -34
27 -60 22 -60 -3 0 -13 19 -23 43 -28 63 -33 79 -22 72 6 -3 10 -12 10 -18z
m-2216 -23 c3 -8 2 -12 -4 -9 -6 3 -10 10 -10 16 0 14 7 11 14 -7z m1 -82 c6
-4 12 -20 14 -37 1 -16 11 -51 21 -78 13 -34 15 -49 7 -54 -7 -3 -9 -3 -5 2 4
4 1 13 -7 19 -13 10 -30 51 -55 129 -9 27 2 36 25 19z m2265 -12 c0 -5 -2 -10
-4 -10 -3 0 -8 5 -11 10 -3 6 -1 10 4 10 6 0 11 -4 11 -10z m23 -50 c3 -11 2
-18 -3 -15 -4 3 -10 14 -13 25 -3 11 -2 18 3 15 4 -3 10 -14 13 -25z m26 -56
c16 -37 9 -39 -11 -3 -9 16 -14 29 -9 29 4 0 13 -12 20 -26z m-41 -9 c-3 -3
-9 2 -12 12 -6 14 -5 15 5 6 7 -7 10 -15 7 -18z m32 -56 c0 -6 -4 -7 -10 -4
-5 3 -10 11 -10 16 0 6 5 7 10 4 6 -3 10 -11 10 -16z m-2206 -4 c11 -8 16 -15
11 -15 -4 0 0 -10 11 -22 12 -13 13 -18 4 -13 -12 7 -13 6 -4 -6 15 -19 24
-59 14 -59 -4 0 -15 18 -24 40 -14 36 -19 40 -43 35 -26 -5 -26 -5 -5 4 12 6
22 12 22 15 0 2 -10 2 -22 -1 -22 -4 -22 -3 2 11 l25 16 -30 -5 c-24 -4 -26
-3 -10 4 27 13 27 13 49 -4z m1390 -802 c-3 -16 -6 -36 -7 -45 -1 -18 -9 -23
-19 -13 -8 8 13 85 23 85 4 0 5 -12 3 -27z m-48 -175 c-19 -27 -21 -19 -4 18
7 14 14 21 16 15 2 -6 -4 -21 -12 -33z m-5576 -559 c0 -14 -29 -17 -140 -12
-63 3 -127 6 -142 6 -16 1 -28 5 -28 9 0 4 70 7 155 6 85 -1 155 -5 155 -9z
m1605 -214 l40 -14 -40 6 c-22 3 -49 9 -60 14 l-20 8 20 0 c11 0 38 -7 60 -14z
m72 -21 c-3 -3 -12 -4 -19 -1 -8 3 -5 6 6 6 11 1 17 -2 13 -5z m3546 -41 c-7
-2 -10 -10 -7 -16 2 -7 -2 -21 -11 -32 -14 -19 -15 -19 -11 8 5 32 25 61 35
51 3 -4 1 -9 -6 -11z m-4083 -107 c0 -3 -4 -8 -10 -11 -5 -3 -10 -1 -10 4 0 6
5 11 10 11 6 0 10 -2 10 -4z m-19 -242 c-23 -69 -71 -174 -71 -157 0 16 82
224 87 219 2 -2 -5 -30 -16 -62z m2339 -38 c0 -6 -5 -3 -11 7 -6 9 -15 14 -21
11 -7 -4 -8 -2 -4 5 9 14 36 -3 36 -23z m1636 -57 c2 -7 6 -25 9 -39 4 -14 7
-31 7 -37 1 -7 5 -13 10 -13 5 0 6 -5 2 -11 -10 -17 -33 31 -36 79 -1 6 -4 12
-8 12 -4 0 -7 7 -7 15 0 19 19 14 23 -6z m-1642 -45 c3 -8 2 -12 -4 -9 -6 3
-10 10 -10 16 0 14 7 11 14 -7z m1739 -61 c3 -13 3 -23 1 -23 -6 0 -34 65 -34
77 0 13 27 -31 33 -54z m-4183 -7 c0 -3 -4 -8 -10 -11 -5 -3 -10 -1 -10 4 0 6
5 11 10 11 6 0 10 -2 10 -4z m86 -18 c3 -4 12 -4 20 -1 8 3 14 0 14 -6 0 -5
-13 -9 -30 -8 -16 1 -30 6 -30 10 0 5 -4 5 -10 2 -5 -3 -10 -1 -10 4 0 11 35
10 46 -1z m4118 -108 c33 -69 53 -100 64 -99 14 0 13 2 -3 9 -13 6 -15 9 -5 9
13 1 13 2 0 12 -13 9 -13 10 0 7 14 -4 72 -109 64 -117 -2 -2 3 -13 13 -23 18
-20 17 -23 -13 -32 -27 -8 -39 17 -22 47 9 19 9 20 -3 10 -11 -9 -14 -6 -15
18 -2 39 -19 58 -36 40 -10 -11 -10 -12 -1 -7 8 5 11 2 7 -7 -3 -8 4 -37 15
-66 10 -28 17 -51 15 -51 -5 0 -54 108 -59 130 -7 27 -50 125 -57 128 -4 2 -4
10 -1 19 5 12 3 14 -7 8 -9 -5 -11 -4 -6 3 4 6 0 25 -9 41 -12 24 -12 29 -2
25 8 -3 35 -50 61 -104z m-8094 79 c-14 -12 -39 -34 -57 -49 -17 -16 -34 -26
-37 -23 -3 4 -6 2 -6 -3 0 -6 -15 -21 -32 -34 -25 -18 -29 -19 -18 -5 23 30
79 77 124 107 49 32 60 35 26 7z m4057 15 c-3 -3 -12 -4 -19 -1 -8 3 -5 6 6 6
11 1 17 -2 13 -5z m138 -25 c12 -5 0 -6 -30 -3 -27 4 -57 10 -65 15 -18 11 65
0 95 -12z m3823 -91 c14 -32 29 -58 32 -58 11 0 121 -191 115 -200 -7 -11 15
-60 27 -60 5 0 6 -4 3 -10 -4 -6 5 -10 21 -10 32 0 29 -5 -7 -13 -25 -6 -28
-2 -53 54 -14 33 -26 67 -26 75 0 8 -5 14 -11 14 -5 0 -8 4 -5 9 3 4 -2 17
-10 27 -9 10 -13 13 -9 7 3 -7 4 -13 1 -13 -10 0 -95 169 -110 219 -18 61 -20
78 -4 41 5 -14 22 -51 36 -82z m-4204 30 c-3 -4 0 -8 6 -8 6 0 9 -4 6 -9 -7
-10 -46 -3 -46 8 0 12 9 18 25 18 8 0 12 -4 9 -9z m81 -16 c11 -6 15 -12 8
-12 -6 0 -15 5 -19 11 -4 8 -9 7 -15 -2 -7 -11 -9 -11 -9 -1 0 7 -5 10 -12 6
-6 -4 -8 -3 -5 4 8 12 25 11 52 -6z m49 0 c3 -5 -1 -9 -9 -9 -8 0 -12 4 -9 9
3 4 7 8 9 8 2 0 6 -4 9 -8z m-1404 -11 c0 11 2 11 10 -1 6 -10 10 -11 10 -2 0
6 5 12 10 12 7 0 7 -6 1 -19 -11 -20 -51 -36 -51 -20 0 5 -5 9 -11 9 -5 0 -7
-4 -4 -10 3 -5 -4 -11 -17 -12 -13 0 -42 -2 -66 -4 -37 -2 -343 -63 -407 -81
l-20 -5 20 17 c20 16 20 16 -2 5 -13 -6 -23 -15 -23 -20 0 -6 -4 -10 -10 -10
-5 0 -8 6 -6 13 1 6 1 9 -1 4 -3 -4 -9 -5 -13 -2 -5 3 -12 0 -16 -6 -4 -8 -3
-9 4 -5 7 4 12 3 12 -2 0 -14 -28 -23 -35 -12 -4 6 -11 10 -16 10 -6 0 -8 -4
-5 -9 3 -5 -1 -11 -9 -15 -8 -3 -15 0 -15 7 0 7 -3 8 -8 2 -4 -5 -16 -11 -27
-13 -11 -2 -64 -19 -119 -38 -102 -35 -132 -41 -121 -24 3 6 -1 7 -9 4 -9 -3
-13 -11 -9 -17 3 -6 1 -7 -5 -3 -6 4 -50 -7 -97 -24 -88 -31 -125 -37 -125
-21 0 12 105 51 180 67 13 3 30 10 37 16 7 6 13 8 13 4 0 -4 14 1 31 10 17 8
28 11 25 5 -9 -14 4 -14 37 2 15 6 27 19 27 27 0 12 2 12 9 1 7 -10 13 -11 30
-2 11 7 21 9 21 6 0 -3 10 0 23 7 12 6 27 13 32 14 6 1 23 5 38 7 15 3 54 13
85 22 64 19 87 25 118 29 11 2 26 6 32 10 6 3 13 2 17 -4 4 -6 11 -5 20 4 8 7
26 12 41 10 16 -1 33 0 39 4 5 4 24 7 40 8 66 4 242 37 253 48 3 3 11 1 19 -5
10 -9 13 -8 13 2z m51 -14 c-10 -9 -11 -8 -5 6 3 10 9 15 12 12 3 -3 0 -11 -7
-18z m2012 2 c40 -12 76 -25 81 -30 5 -4 15 -5 22 -2 8 3 14 -1 14 -8 0 -7 3
-10 6 -7 3 4 20 0 39 -7 18 -8 35 -12 38 -9 3 3 8 1 11 -5 4 -6 -4 -8 -21 -5
-34 6 -180 52 -208 65 -12 6 -28 11 -38 13 -17 2 -36 16 -23 16 4 0 40 -10 79
-21z m-4803 -3 c0 -2 -8 -10 -17 -17 -16 -13 -17 -12 -4 4 13 16 21 21 21 13z
m36 -28 c4 -7 3 -8 -4 -4 -7 4 -12 1 -12 -8 0 -9 -3 -16 -8 -16 -4 0 -35 -27
-70 -60 -62 -60 -93 -78 -70 -40 7 11 16 20 20 20 4 0 19 11 34 25 20 18 23
25 11 25 -9 0 -22 -9 -30 -20 -8 -11 -17 -17 -20 -13 -4 3 -7 1 -7 -6 0 -7 -4
-9 -10 -6 -6 3 -7 -1 -4 -9 3 -9 2 -16 -4 -16 -19 0 -6 30 26 61 17 17 30 34
28 38 -2 3 6 7 19 7 13 1 22 -3 21 -10 -2 -6 -1 -8 1 -3 3 4 9 5 14 2 5 -4 6
2 2 11 -4 12 -3 15 5 10 7 -4 12 -2 12 4 0 6 5 8 10 5 6 -3 10 -1 10 4 0 15
17 14 26 -1z m-57 -184 c-33 -36 -55 -30 -23 6 15 16 31 27 36 24 5 -4 -1 -17
-13 -30z m4808 30 c-3 -3 -12 -4 -19 -1 -8 3 -5 6 6 6 11 1 17 -2 13 -5z m158
-39 c75 -19 202 -56 283 -83 81 -27 166 -55 190 -62 23 -7 40 -15 38 -17 -2
-2 -66 13 -142 33 -77 20 -143 37 -149 39 -5 1 -18 5 -27 9 -9 4 -22 4 -29 0
-8 -4 -9 -3 -5 4 4 7 1 13 -8 13 -24 2 -29 4 -51 16 -11 6 -28 9 -38 8 -9 -2
-15 1 -11 6 5 9 -4 12 -38 12 -10 0 -18 4 -18 8 0 5 -10 9 -22 10 -22 1 -130
37 -117 38 4 1 68 -15 144 -34z m-5005 -29 c0 -2 -6 -9 -14 -15 -11 -9 -16 -9
-22 0 -4 8 -3 9 4 5 7 -4 12 -2 12 3 0 6 5 11 10 11 6 0 10 -2 10 -4z m-89
-69 c-10 -9 -11 -8 -5 6 3 10 9 15 12 12 3 -3 0 -11 -7 -18z m8494 3 c3 -5 1
-10 -4 -10 -6 0 -11 5 -11 10 0 6 2 10 4 10 3 0 8 -4 11 -10z m-8519 -36 c-10
-7 -24 -21 -32 -31 -9 -10 -12 -11 -7 -3 21 39 38 58 47 53 5 -3 1 -12 -8 -19z
m4239 6 c61 -6 124 -12 140 -14 17 -3 66 -10 110 -16 44 -5 94 -13 110 -15 17
-3 44 -7 60 -10 17 -2 48 -8 70 -11 40 -7 54 -7 133 -1 23 2 45 0 48 -4 2 -4
13 -6 24 -4 11 2 20 0 20 -5 0 -5 9 -7 20 -5 11 2 24 -3 28 -12 5 -8 11 -13
13 -12 2 2 40 -7 84 -19 372 -102 441 -119 456 -111 24 12 378 -101 417 -133
6 -6 12 -7 12 -3 0 4 6 3 13 -2 6 -5 32 -16 57 -23 25 -7 50 -18 57 -23 34
-25 82 -44 92 -34 16 16 8 -14 -14 -50 -11 -18 -24 -33 -31 -33 -6 0 -28 -21
-47 -47 -20 -27 -40 -53 -45 -58 -20 -24 -44 -65 -38 -65 8 0 -37 -62 -85
-118 -33 -39 -60 -58 -43 -30 4 7 3 8 -5 4 -6 -4 -9 -12 -5 -17 6 -11 -23 -49
-38 -49 -5 0 -15 -6 -23 -12 -7 -7 -29 -26 -49 -42 -20 -16 -36 -37 -36 -45 0
-9 -14 -33 -31 -54 -17 -20 -27 -41 -24 -47 3 -5 0 -10 -8 -10 -7 0 -20 -12
-27 -26 -12 -22 -15 -23 -20 -8 -6 15 -9 14 -26 -10 -30 -43 -137 -170 -151
-179 -6 -4 -35 -36 -63 -72 -29 -36 -56 -63 -60 -60 -5 3 -12 0 -16 -6 -4 -8
-3 -9 4 -5 23 14 11 -11 -18 -39 -16 -16 -30 -25 -30 -21 0 10 -93 -76 -267
-249 -210 -209 -438 -422 -476 -447 -7 -4 -6 -13 4 -25 13 -17 13 -17 -5 -3
-18 13 -19 13 -14 0 7 -19 -127 -116 -138 -99 -6 10 22 38 39 39 5 0 5 5 2 10
-3 6 -2 10 4 10 8 0 44 32 150 135 29 29 131 145 131 150 0 11 -77 -41 -97
-65 -11 -13 -12 -12 -6 4 5 15 3 17 -8 11 -8 -4 2 6 21 23 28 24 32 33 23 43
-10 10 -14 9 -19 -5 -5 -12 -9 -14 -14 -6 -4 7 -13 1 -24 -17 -23 -35 -304
-313 -318 -313 -12 0 -116 -98 -128 -121 -6 -11 -5 -16 5 -16 8 0 12 4 10 8
-3 4 2 10 11 13 10 4 13 2 8 -6 -4 -7 7 -2 25 11 54 39 45 18 -24 -52 -35 -37
-63 -67 -61 -67 2 0 -42 -47 -98 -105 -57 -60 -111 -107 -125 -110 -28 -5 -61
-33 -58 -49 1 -6 -6 -10 -17 -8 -10 2 -15 -1 -12 -6 3 -6 -10 -19 -29 -31 -19
-11 -35 -25 -35 -31 0 -6 -4 -9 -9 -5 -6 3 -15 -3 -20 -14 -6 -10 -34 -36 -63
-56 -29 -21 -57 -44 -61 -52 -7 -11 -12 -12 -23 -2 -12 9 -13 9 -9 -2 3 -8 -3
-19 -14 -24 -10 -6 -47 -29 -80 -53 -39 -27 -57 -36 -50 -24 7 11 36 34 66 52
31 19 50 37 46 44 -3 6 -3 8 1 4 9 -8 40 21 49 46 4 9 11 15 15 12 5 -3 29 14
53 37 25 23 33 31 18 18 -15 -13 -32 -20 -38 -16 -6 3 -15 -4 -20 -17 -6 -13
-10 -18 -10 -11 -1 12 -60 -12 -72 -30 -3 -5 -9 -2 -12 6 -3 9 3 21 16 30 25
16 99 115 76 102 -18 -11 -241 -179 -381 -287 -178 -138 -451 -343 -482 -362
-16 -10 -124 -89 -240 -175 -116 -86 -241 -177 -277 -201 -60 -40 -72 -54
-140 -167 -41 -68 -79 -132 -84 -141 -11 -17 -36 -28 -34 -14 3 20 -3 20 -21
2 -11 -11 -20 -24 -20 -30 0 -9 -22 -15 -43 -11 -5 1 -6 -3 -2 -8 3 -6 13 -7
22 -4 15 6 16 5 3 -9 -9 -9 -17 -12 -19 -6 -2 6 -7 4 -12 -3 -6 -10 -8 -6 -5
11 3 14 5 29 5 33 1 5 5 6 9 3 8 -5 12 8 13 47 0 16 3 17 17 5 15 -11 15 -11
5 3 -7 9 -9 20 -5 25 4 4 -1 2 -11 -5 -10 -8 -16 -20 -13 -27 5 -14 -17 -37
-27 -29 -4 3 -5 2 -2 -2 3 -3 -3 -16 -13 -27 -18 -20 -137 -207 -157 -247 -5
-10 -13 -19 -18 -19 -4 0 -5 -5 -1 -12 4 -7 3 -8 -4 -4 -15 9 -8 25 73 161
189 314 346 590 321 565 -8 -8 -23 -31 -34 -50 -11 -19 -25 -34 -32 -32 -6 1
-9 -2 -6 -7 4 -5 -22 -55 -56 -111 -35 -55 -68 -110 -74 -121 -6 -11 -15 -20
-20 -21 -5 0 -16 -4 -25 -9 -9 -4 -21 -4 -27 1 -9 7 -9 7 -3 -1 7 -8 5 -22 -5
-41 -18 -35 -31 -31 -14 4 11 22 11 22 -9 -2 -23 -28 -28 -55 -8 -44 7 4 9 3
4 -2 -5 -5 -13 -9 -19 -9 -5 0 -24 -25 -40 -55 -47 -86 -97 -160 -109 -160 -5
0 -9 3 -7 8 24 50 36 72 55 101 13 18 20 37 17 42 -3 5 0 9 5 9 6 0 10 4 8 8
-4 15 57 121 66 115 6 -3 7 -1 4 5 -9 13 2 42 15 42 5 0 6 -5 2 -12 -4 -7 -3
-8 4 -4 6 4 9 13 6 21 -6 15 53 135 66 135 4 0 11 11 14 25 4 14 11 25 17 25
6 0 -6 -30 -26 -66 -21 -37 -31 -64 -24 -61 8 2 13 10 12 16 -2 6 1 11 6 11 5
0 14 15 21 33 8 17 19 39 27 48 12 14 12 17 -2 23 -15 5 -15 8 -1 21 8 8 26
15 39 15 25 0 42 23 31 41 -3 5 0 8 7 7 7 -2 17 7 24 18 6 12 16 28 23 36 6 8
9 18 5 21 -3 4 -2 7 4 7 10 0 26 36 24 52 0 4 4 20 10 35 9 25 9 26 -8 13 -11
-8 -9 -5 4 7 13 12 19 25 13 28 -5 3 -7 12 -4 20 4 8 11 12 16 9 6 -4 5 -10
-3 -16 -12 -8 -12 -9 0 -6 8 2 16 14 18 27 2 15 -1 20 -9 15 -7 -4 -8 -3 -4 5
4 6 11 9 16 6 5 -3 11 -1 15 5 3 5 1 10 -4 10 -19 0 -12 22 9 27 11 3 20 9 20
14 0 13 42 80 47 75 3 -2 0 -14 -7 -25 -7 -14 -7 -21 0 -21 5 0 10 -5 10 -11
0 -5 -4 -7 -10 -4 -5 3 -7 0 -5 -7 3 -8 -1 -34 -10 -58 l-15 -45 25 30 c14 17
44 53 66 82 22 28 47 54 56 57 9 4 13 13 9 24 -6 16 -5 16 8 -1 12 -16 14 -16
20 -2 3 9 2 13 -4 10 -5 -3 -8 3 -7 14 1 16 4 18 16 8 12 -10 13 -9 4 8 -9 15
-8 22 5 33 13 10 13 12 2 7 -10 -4 -9 -2 2 8 10 8 15 17 11 20 -3 4 -1 7 6 7
7 0 9 5 6 10 -3 6 -1 10 4 10 6 0 11 7 11 15 0 8 5 15 11 15 5 0 7 5 4 10 -3
6 -1 10 5 10 6 0 8 5 5 10 -3 6 -1 10 4 10 6 0 11 7 11 15 0 8 5 15 11 15 5 0
7 4 4 10 -3 5 0 8 7 5 8 -3 29 25 57 77 24 46 70 128 101 183 75 130 230 415
230 421 0 3 16 33 37 67 20 34 54 96 76 137 46 87 79 134 119 172 17 16 26 33
22 40 -4 7 -3 8 4 4 11 -6 16 5 13 26 0 4 9 10 20 13 20 7 20 7 2 22 -13 10
-15 16 -5 19 6 3 10 10 6 15 -3 5 2 9 11 9 9 0 14 4 10 9 -6 11 14 61 25 61 4
0 7 -7 7 -15 0 -8 -4 -12 -8 -10 -4 3 -9 -2 -13 -10 -9 -23 2 -18 36 18 17 17
27 25 22 17 -4 -8 -9 -23 -11 -35 -6 -47 -10 -57 -24 -66 -8 -5 -10 -9 -5 -9
5 0 3 -7 -4 -15 -6 -8 -9 -19 -5 -25 4 -6 3 -10 -2 -9 -17 3 -33 -1 -31 -8 1
-5 -3 -18 -10 -30 -8 -15 -9 -23 -2 -23 5 0 10 7 10 15 0 9 6 12 18 9 14 -5
14 -4 2 5 -12 8 -12 11 3 17 22 8 90 141 81 156 -4 6 -3 8 4 4 10 -6 22 18 28
59 6 38 10 50 28 84 10 19 22 48 27 64 7 24 6 27 -6 17 -16 -14 -18 -10 -9 14
3 9 11 13 17 9 5 -3 7 -2 4 4 -7 11 27 88 44 98 20 13 19 -2 -5 -63 -14 -34
-20 -60 -15 -56 11 6 110 210 123 252 4 12 11 22 15 22 5 0 25 37 44 83 20 45
49 109 65 142 30 60 247 566 293 680 13 33 28 63 33 67 5 3 10 22 10 42 1 20
4 36 9 36 4 0 6 3 5 8 0 4 2 16 6 27 20 54 102 256 123 303 26 60 16 58 188
42z m-4395 -23 c0 -2 -10 -12 -22 -23 l-23 -19 19 23 c18 21 26 27 26 19z
m100 -41 c0 -2 -7 -9 -15 -16 -13 -11 -14 -10 -9 4 5 14 24 23 24 12z m2840
-25 c0 -4 -12 -26 -27 -47 -30 -43 -163 -308 -163 -324 0 -6 -23 -56 -51 -113
-29 -56 -50 -102 -48 -103 2 0 -1 -7 -7 -15 -6 -8 -17 -39 -24 -69 -7 -30 -16
-60 -21 -66 -5 -6 -6 -14 -2 -17 3 -4 2 -7 -4 -7 -12 0 -23 -22 -29 -60 -3
-19 -2 -22 6 -10 15 23 12 7 -6 -28 -8 -18 -20 -32 -25 -32 -6 0 -8 -4 -5 -9
4 -5 2 -11 -2 -13 -30 -12 -200 -321 -207 -376 -2 -18 -33 -84 -68 -145 -35
-62 -86 -152 -113 -201 -65 -118 -75 -135 -101 -173 -13 -17 -23 -34 -23 -37
0 -3 -31 -56 -69 -118 -37 -62 -76 -126 -85 -143 -9 -16 -24 -42 -34 -57 -9
-14 -35 -57 -56 -94 -22 -38 -104 -171 -183 -297 -79 -125 -164 -267 -189
-315 -25 -47 -66 -117 -90 -154 -24 -38 -44 -73 -44 -79 0 -6 -13 -28 -28 -48
-49 -63 -128 -184 -150 -231 -47 -101 -269 -425 -292 -426 -14 -1 -8 17 36
105 125 248 196 400 189 410 -3 6 -1 11 5 11 7 0 10 7 6 15 -3 8 -1 15 5 15 6
0 7 5 4 10 -3 6 -1 10 4 10 6 0 11 6 11 14 0 8 6 17 13 19 8 4 7 6 -3 6 -9 1
-27 -17 -40 -38 -14 -21 -29 -36 -35 -33 -5 3 -7 2 -3 -3 8 -8 -30 -87 -57
-120 -9 -11 -5 1 8 28 14 26 22 47 17 47 -11 0 -75 -111 -75 -130 0 -8 -6 -15
-14 -15 -7 0 -42 -47 -78 -105 -35 -58 -73 -121 -85 -140 -12 -19 -21 -39 -20
-43 2 -5 -1 -6 -6 -3 -5 3 -15 -7 -23 -22 -7 -15 -21 -39 -31 -54 -22 -32 -24
-62 -3 -34 8 11 15 17 15 14 0 -13 -85 -163 -102 -180 -16 -16 -20 -25 -17
-44 0 -3 -8 -12 -18 -21 -10 -8 -12 -12 -5 -8 6 3 12 1 12 -4 0 -6 -7 -11 -16
-11 -8 0 -12 -4 -9 -10 3 -5 2 -10 -4 -10 -6 0 -8 -6 -5 -14 3 -8 0 -17 -7
-22 -8 -5 -10 -3 -4 6 6 9 4 11 -4 6 -7 -5 -10 -14 -7 -22 3 -8 3 -14 1 -14
-3 0 -42 78 -50 100 -1 3 -7 19 -14 35 -37 87 -112 319 -107 332 3 8 2 12 -2
9 -13 -8 -35 91 -38 164 -1 36 -5 110 -10 165 -4 55 -8 116 -9 135 0 19 -6 45
-13 57 -7 12 -14 43 -16 68 -3 39 -1 45 13 41 13 -5 12 -3 -2 8 -10 8 -13 16
-7 18 5 1 12 13 15 26 2 13 0 20 -6 17 -5 -4 -7 -10 -4 -15 3 -5 1 -12 -5 -15
-7 -5 -9 24 -5 92 8 145 10 156 25 161 13 3 12 2 0 -7 -13 -10 -13 -11 0 -11
13 0 13 -1 0 -10 -13 -9 -13 -10 0 -10 13 0 13 -1 0 -10 -9 -6 -10 -10 -3 -10
7 0 10 -10 7 -24 -8 -46 -11 -115 -5 -121 5 -6 50 320 51 371 0 11 -6 21 -13
21 -9 0 -12 -9 -9 -24 2 -13 -1 -23 -7 -23 -7 0 -9 -4 -6 -10 3 -5 0 -10 -7
-11 -10 0 -10 -2 1 -6 11 -5 11 -7 0 -14 -9 -5 -10 -9 -2 -9 6 0 9 -9 6 -20
-3 -11 -10 -20 -15 -20 -11 0 -5 86 10 145 6 22 18 81 26 131 9 50 32 142 52
205 20 63 37 121 38 129 3 37 49 130 65 130 11 0 12 3 4 8 -13 9 49 156 125
295 23 43 42 83 42 88 0 10 65 118 122 202 21 31 36 62 32 69 -4 6 -3 8 3 5 6
-4 19 5 29 20 9 15 26 36 36 47 10 11 18 23 18 27 0 4 7 15 16 23 11 12 12 16
2 16 -7 0 -2 7 10 16 12 8 22 22 22 30 0 8 4 13 9 10 5 -4 23 16 39 43 l30 49
-24 12 c-13 8 -24 18 -24 24 0 6 21 33 46 59 39 43 47 47 62 35 15 -12 16 -11
3 5 -20 25 1 46 26 26 16 -13 17 -12 4 3 -12 16 -10 21 10 43 13 13 30 25 37
25 7 0 11 4 8 8 -9 14 61 73 78 66 18 -7 74 41 63 53 -4 3 -18 -6 -31 -20 -14
-15 -27 -23 -30 -18 -9 15 39 51 65 49 18 -2 24 2 23 14 -1 10 3 15 8 12 10
-6 58 33 58 48 0 5 -4 6 -10 3 -6 -3 -7 1 -4 10 5 12 9 13 20 4 12 -9 13 -9 9
3 -6 16 15 37 135 127 47 36 99 75 115 88 42 33 49 38 60 40 9 2 132 50 190
74 92 38 649 186 875 233 173 36 220 42 220 27z m9267 -27 c-3 -3 -12 -4 -19
-1 -8 3 -5 6 6 6 11 1 17 -2 13 -5z m-3454 -56 c14 -27 21 -48 17 -48 -5 0
-18 21 -30 46 -33 75 -26 76 13 2z m-8793 -31 c0 -2 -10 -12 -22 -23 l-23 -19
19 23 c18 21 26 27 26 19z m6540 -89 c0 -10 -45 12 -75 36 -12 10 -2 8 28 -6
26 -12 47 -26 47 -30z m-5085 -278 c-10 -11 -22 -20 -28 -20 -5 0 1 9 14 20
31 25 37 25 14 0z m-60 -50 c-3 -5 -12 -10 -18 -10 -7 0 -6 4 3 10 19 12 23
12 15 0z m-685 -138 c-14 -9 -45 -38 -70 -64 -25 -26 -50 -48 -56 -48 -7 0
-15 -7 -18 -16 -3 -8 -11 -12 -17 -8 -7 4 -9 3 -5 -4 3 -6 -7 -20 -24 -32 -33
-23 -38 -14 -16 28 19 37 92 106 104 98 5 -3 33 10 63 29 54 34 86 49 39 17z
m-60 -17 c0 -2 -10 -10 -22 -16 -21 -11 -22 -11 -9 4 13 16 31 23 31 12z m565
-5 c-3 -5 -12 -10 -18 -10 -7 0 -6 4 3 10 19 12 23 12 15 0z m-40 -29 c-3 -6
-11 -11 -16 -11 -5 0 -4 6 3 14 14 16 24 13 13 -3z m-30 -31 c-3 -5 -12 -10
-18 -10 -7 0 -6 4 3 10 19 12 23 12 15 0z m-30 -30 c-3 -5 -12 -10 -18 -10 -7
0 -6 4 3 10 19 12 23 12 15 0z m1520 -21 c-10 -15 -25 -10 -19 6 4 8 10 12 15
9 5 -3 7 -10 4 -15z m-1630 -89 c-3 -5 -12 -10 -18 -10 -7 0 -6 4 3 10 19 12
23 12 15 0z m-18 -26 c-3 -3 -12 -4 -19 -1 -8 3 -5 6 6 6 11 1 17 -2 13 -5z
m-30 -30 c-3 -3 -12 -4 -19 -1 -8 3 -5 6 6 6 11 1 17 -2 13 -5z m6698 -64 c3
-5 1 -10 -5 -10 -6 0 -8 -5 -5 -10 5 -8 11 -8 19 -1 9 8 18 1 34 -28 24 -43
27 -56 11 -45 -6 3 -4 -7 5 -24 8 -16 12 -32 9 -36 -4 -3 -1 -6 6 -6 7 0 9 -4
6 -10 -3 -5 -1 -10 5 -10 6 0 8 -5 4 -12 -5 -8 -2 -9 11 -4 16 6 16 4 4 -11
-12 -15 -12 -16 5 -10 17 7 17 6 5 -10 -12 -15 -12 -16 3 -10 25 9 55 -48 37
-69 -9 -11 -9 -14 1 -14 10 0 9 -5 -3 -17 -13 -15 -13 -22 -3 -41 7 -12 15
-19 20 -15 4 4 4 -1 0 -11 -6 -15 -4 -17 7 -11 11 7 11 5 -1 -10 -14 -17 -13
-18 2 -12 12 4 15 2 11 -8 -3 -8 2 -18 11 -21 9 -3 13 -10 10 -15 -3 -5 0 -9
6 -9 7 0 9 -7 6 -16 -4 -10 -2 -13 6 -8 8 5 9 2 4 -11 -6 -16 -4 -16 10 -4 16
13 16 12 4 -11 -13 -24 -12 -24 5 -10 17 14 18 14 5 -10 -12 -23 -12 -24 4
-11 14 12 16 12 10 -4 -5 -13 -4 -16 4 -11 8 5 10 1 5 -10 -4 -12 -3 -15 5
-10 8 5 10 1 5 -10 -4 -12 -3 -15 5 -10 8 5 10 1 5 -10 -4 -12 -3 -15 5 -10 8
5 10 1 5 -10 -4 -12 -3 -15 5 -10 8 5 10 1 5 -10 -4 -12 -3 -15 5 -10 8 5 10
1 5 -10 -4 -12 -3 -15 5 -10 8 5 10 1 5 -10 -4 -12 -3 -15 5 -10 8 5 10 1 5
-10 -5 -13 -3 -15 7 -9 9 5 11 4 6 -3 -8 -14 20 -72 35 -72 6 0 7 -4 4 -10 -3
-5 -1 -10 5 -10 6 0 8 -4 5 -10 -3 -5 -1 -10 5 -10 6 0 8 -4 5 -10 -3 -5 -1
-10 5 -10 6 0 8 -4 5 -10 -3 -5 -2 -10 3 -10 6 0 8 -8 5 -19 -5 -19 56 -149
139 -294 28 -48 52 -98 53 -110 3 -23 52 -128 64 -137 4 -3 24 -36 45 -75 21
-38 48 -79 60 -90 12 -11 28 -35 35 -52 7 -18 18 -33 23 -33 5 0 6 -4 3 -10
-3 -5 -1 -10 4 -10 6 0 10 -3 9 -7 -2 -9 21 -55 31 -63 15 -11 51 -82 51 -100
0 -10 8 -24 18 -29 9 -6 13 -11 7 -11 -6 0 -6 -3 0 -8 6 -4 29 -34 51 -67 72
-108 133 -195 205 -292 39 -52 73 -102 77 -111 8 -22 164 -215 218 -269 23
-24 46 -43 52 -43 6 0 21 -17 33 -37 13 -21 44 -65 70 -98 25 -33 68 -91 95
-130 50 -72 183 -237 214 -264 10 -9 44 -52 77 -96 32 -44 91 -114 130 -155
39 -41 92 -102 118 -135 27 -33 70 -82 96 -109 27 -27 47 -52 44 -56 -2 -4 10
-22 28 -41 29 -30 33 -40 28 -66 0 -5 -19 -28 -40 -52 -22 -24 -38 -52 -36
-61 2 -10 -10 -30 -26 -46 -16 -15 -29 -32 -29 -36 0 -5 -18 -25 -40 -45 -22
-21 -40 -43 -40 -50 0 -7 -3 -12 -7 -12 -17 3 -33 -1 -32 -8 3 -21 -3 -31 -18
-29 -10 0 -17 -5 -15 -12 1 -7 -5 -12 -15 -10 -10 2 -18 -3 -19 -9 -1 -7 -2
-17 -3 -23 0 -5 -8 -7 -16 -3 -9 3 -15 2 -13 -3 4 -17 -13 -54 -23 -48 -5 3
-6 10 -3 16 4 7 2 8 -4 4 -6 -4 -9 -13 -6 -20 3 -8 0 -17 -7 -22 -7 -4 -10 -3
-5 4 3 6 2 13 -4 17 -5 3 -10 3 -11 -2 -2 -26 -9 -47 -18 -56 -7 -7 -8 -2 -4
14 6 22 5 23 -11 10 -9 -8 -14 -21 -11 -30 5 -12 3 -13 -6 -4 -9 9 -17 5 -35
-14 -13 -14 -21 -29 -18 -34 3 -5 -2 -6 -10 -3 -12 5 -16 0 -16 -18 0 -14 -12
-36 -27 -50 -38 -35 -254 -201 -348 -268 -43 -30 -92 -67 -109 -81 -51 -43
-423 -261 -526 -308 -52 -24 -152 -69 -222 -99 -72 -31 -128 -61 -128 -69 0
-16 3 -16 44 1 32 13 33 13 28 -6 -4 -15 -7 -17 -13 -6 -7 10 -9 9 -9 -4 0
-10 6 -18 13 -18 6 0 4 -5 -5 -11 -25 -14 -22 -27 5 -24 12 1 22 3 22 4 0 2 9
4 21 6 11 3 34 11 50 20 16 8 37 15 47 15 15 0 16 -2 5 -14 -7 -8 -15 -12 -17
-10 -3 2 -14 -2 -25 -9 -45 -28 -215 -90 -232 -85 -15 4 -204 -63 -204 -73 0
-5 -3 -8 -7 -7 -15 4 -122 -36 -117 -43 11 -19 -59 -41 -321 -100 -99 -22
-234 -53 -299 -70 -109 -27 -340 -70 -454 -84 -26 -4 -74 -11 -107 -16 -33 -6
-69 -12 -80 -13 -11 -2 -65 -7 -119 -11 -72 -6 -97 -5 -92 4 9 13 -57 15 -82
2 -9 -5 -145 -12 -302 -16 -157 -3 -310 -8 -340 -10 -54 -4 -120 -22 -90 -25
68 -7 105 -23 94 -41 -3 -5 0 -9 5 -9 6 0 11 6 11 13 0 9 2 9 8 -1 5 -7 15
-11 23 -9 8 2 11 2 7 0 -5 -3 -8 -9 -8 -14 0 -5 3 -8 8 -8 18 3 185 -1 181 -5
-2 -2 -49 -6 -104 -10 -129 -8 -179 -16 -186 -28 -11 -18 -527 3 -699 28 -52
8 -118 14 -147 14 -68 0 -303 40 -531 91 -108 24 -194 38 -209 34 -17 -4 -22
-2 -18 5 5 8 2 8 -11 0 -25 -15 -171 21 -166 40 3 11 0 11 -12 1 -13 -11 -17
-10 -22 3 -4 10 -13 15 -20 12 -7 -3 -16 -1 -19 4 -3 5 -14 7 -25 5 -11 -2
-20 0 -20 6 0 5 -5 9 -11 9 -5 0 -7 -6 -4 -12 4 -7 -1 -4 -9 6 -9 11 -16 14
-16 7 0 -7 -4 -10 -8 -7 -5 3 -24 8 -43 11 -19 3 -44 13 -56 21 -17 10 -23 11
-23 2 0 -6 -7 -3 -15 8 -8 10 -15 14 -15 8 0 -12 -23 -9 -130 19 -25 6 -50 10
-57 9 -6 -1 -14 2 -18 8 -5 8 -12 7 -23 -2 -9 -7 -13 -8 -10 -3 4 6 -2 16 -12
23 -13 8 -21 8 -25 1 -9 -13 -46 -2 -62 19 -12 14 -13 14 -13 -4 -1 -18 -2
-17 -13 3 -12 21 -87 79 -87 66 0 -3 -6 0 -14 6 -9 8 -16 9 -21 2 -3 -6 10
-17 30 -25 19 -8 35 -20 35 -25 0 -6 8 -8 18 -4 13 4 14 3 6 -6 -8 -9 -22 -7
-58 9 -38 16 -47 24 -44 41 2 15 -3 23 -16 25 -14 2 -16 0 -7 -9 18 -18 14
-39 -6 -28 -23 11 -76 33 -83 33 -3 0 -14 5 -25 11 -11 6 -23 10 -27 9 -5 -1
-8 3 -8 9 0 5 -4 7 -10 4 -5 -3 -10 -3 -10 2 0 11 -78 47 -99 46 -9 -1 -46 14
-82 32 -35 19 -170 86 -299 150 -129 64 -248 123 -265 132 l-30 14 30 -26 c17
-15 41 -34 55 -43 14 -9 32 -22 40 -30 22 -20 152 -101 172 -108 10 -3 18 -10
18 -15 0 -6 5 -7 12 -3 7 5 8 3 3 -6 -6 -10 -4 -12 7 -7 10 3 25 -4 38 -18 13
-14 27 -22 31 -19 4 2 23 -10 41 -27 18 -17 25 -26 16 -19 -10 7 -18 9 -18 4
0 -5 -7 0 -16 11 -8 11 -18 19 -22 19 -14 -3 -38 10 -129 68 -51 32 -98 58
-105 58 -9 0 -9 -3 2 -10 8 -5 11 -12 7 -16 -3 -4 -24 4 -44 18 -64 41 -101
62 -79 44 11 -9 16 -16 12 -16 -15 0 -105 77 -98 84 3 4 -1 4 -11 0 -14 -5
-15 -9 -5 -23 10 -14 10 -14 -2 -3 -8 7 -15 17 -15 21 0 18 -152 131 -182 135
-6 1 -35 22 -65 47 -29 25 -91 76 -138 113 -123 98 -347 332 -339 354 4 9 25
46 48 82 22 36 57 91 77 123 20 32 33 61 30 64 -10 10 -66 -61 -60 -77 3 -8 2
-11 -2 -7 -8 8 -47 -42 -64 -84 -14 -33 -26 -38 -26 -10 0 11 4 17 8 15 4 -3
8 0 8 5 0 6 0 14 0 18 0 4 -6 8 -15 9 -8 1 -13 -1 -10 -6 7 -11 -5 -40 -17
-40 -5 0 -6 6 -3 13 4 6 -1 3 -9 -7 -13 -16 -13 -22 -3 -28 18 -12 1 -10 -28
4 -14 6 -25 14 -25 17 0 3 24 44 53 91 40 65 63 90 96 109 l43 24 -12 -22
c-19 -36 -21 -61 -4 -54 7 3 12 9 9 13 -3 5 3 11 13 14 10 3 26 20 36 37 20
34 79 64 306 156 74 30 171 72 215 93 44 21 112 50 150 65 39 15 95 38 126 51
68 29 82 30 50 4 -13 -11 -21 -20 -17 -20 17 0 123 53 134 68 7 9 16 17 20 18
15 2 48 18 75 36 15 11 27 16 27 12 0 -4 6 -1 13 7 14 18 176 93 184 86 2 -3
-5 -8 -16 -12 -12 -3 -18 -11 -15 -17 4 -6 -4 -19 -17 -29 -24 -18 -23 -18 18
-2 23 8 41 19 38 23 -5 8 71 50 93 51 10 0 62 24 117 53 55 29 146 77 202 106
57 29 100 56 98 61 -3 4 14 18 37 30 179 91 892 548 1228 788 74 53 144 103
156 111 13 8 64 45 116 81 108 76 132 90 101 60 -12 -11 -25 -21 -29 -21 -17
0 -74 -52 -68 -62 4 -7 2 -8 -4 -4 -6 3 -16 -3 -22 -14 -7 -13 -7 -20 -1 -20
6 0 8 -8 4 -17 -3 -10 -3 -15 1 -11 4 3 9 14 10 24 2 10 8 20 14 22 8 2 10 -3
6 -15 -3 -10 -2 -14 3 -8 4 6 25 19 46 30 64 33 107 74 100 93 -6 14 -4 15 9
4 14 -11 19 -9 32 10 9 12 16 17 16 10 0 -10 5 -10 20 -2 27 15 26 33 -2 25
-14 -4 -5 6 22 26 25 18 74 54 110 81 64 47 105 67 59 28 -40 -33 -5 -22 42
13 47 35 65 47 149 105 30 20 65 47 77 60 12 13 24 23 27 23 21 -3 26 0 20 11
-5 7 -3 8 5 3 8 -4 21 1 32 14 11 12 24 21 30 21 6 0 8 4 4 9 -3 5 -1 12 5 16
6 4 7 11 4 17 -4 7 -2 8 4 4 10 -6 112 68 291 210 42 34 96 71 120 83 28 15
41 27 37 36 -3 9 4 19 17 25 21 11 21 11 3 -4 -25 -20 -14 -20 24 -1 17 9 30
20 30 25 0 14 -17 12 -23 -2 -4 -9 -6 -9 -6 -1 -1 6 18 26 42 44 23 19 79 66
125 106 46 41 88 71 94 67 6 -4 8 -3 5 3 -8 13 58 77 72 69 6 -4 9 -1 5 7 -8
21 14 31 34 15 16 -12 16 -11 2 6 -13 18 -13 19 1 14 11 -4 16 -1 15 9 0 9 5
17 12 19 7 1 8 0 2 -3 -5 -2 -8 -9 -4 -14 3 -5 19 4 35 21 17 16 34 30 37 30
4 0 21 13 38 30 18 16 36 26 40 22 5 -4 0 3 -10 15 -18 22 -18 22 34 70 29 26
71 65 92 86 22 20 45 37 50 37 5 0 7 4 3 9 -3 5 4 12 15 16 11 4 17 11 14 17
-5 8 -1 9 10 5 10 -4 15 -3 11 3 -3 6 -1 10 5 10 6 0 8 5 5 10 -6 9 -1 12 34
14 8 1 16 8 18 16 4 13 3 13 -7 0 -10 -13 -11 -13 -7 0 2 8 10 16 18 16 8 1
20 2 27 3 7 0 10 6 6 12 -4 8 -9 7 -15 -2 -5 -8 -9 -9 -9 -4 0 6 10 19 22 29
17 15 20 15 15 3 -4 -11 -2 -14 9 -10 8 3 13 12 10 20 -3 8 -1 11 5 8 5 -4 26
9 45 29 19 20 40 36 46 36 7 0 6 6 -2 15 -11 13 -10 14 2 10 9 -4 23 1 32 10
17 18 19 16 10 -9 -3 -9 -11 -13 -18 -9 -6 3 -8 2 -3 -2 4 -5 -1 -18 -10 -30
-10 -11 -3 -6 15 12 31 32 42 63 22 63 -18 0 -10 32 15 62 14 16 25 27 25 23
0 -3 11 6 25 21 14 15 25 31 25 36 0 5 5 6 10 3 6 -3 10 -1 10 5 0 6 4 8 10 5
6 -4 7 1 3 11 -5 13 -3 15 7 9 10 -6 12 -4 6 10 -5 15 -4 16 9 5 13 -11 14
-10 9 5 -5 13 -4 16 4 11 7 -4 12 -2 12 4 0 6 5 8 12 4 8 -5 9 -2 4 12 -4 10
-4 15 0 12 9 -10 77 59 69 71 -4 7 0 8 11 4 11 -4 15 -3 10 5 -3 6 3 13 14 17
11 3 20 9 20 13 0 4 19 27 41 52 27 30 39 52 36 66 -4 21 13 27 29 11 3 -3 13
0 20 8 15 15 19 29 6 21 -12 -7 -36 40 -27 53 3 6 11 8 17 5 7 -5 9 -1 5 8 -6
18 25 52 38 41 4 -5 5 -2 1 5 -5 8 -1 21 10 32 22 22 30 24 39 10z m1853 -98
c15 12 16 11 4 -4 -8 -9 -11 -22 -8 -27 4 -5 2 -13 -4 -16 -6 -4 -10 -3 -9 2
3 20 -2 34 -11 28 -6 -4 -7 1 -3 11 4 12 8 14 11 6 3 -10 7 -10 20 0z m-1688
-252 c0 -5 -5 -10 -11 -10 -5 0 -7 5 -4 10 3 6 8 10 11 10 2 0 4 -4 4 -10z
m2167 -123 c10 -17 -68 46 -92 74 -11 13 4 4 32 -20 29 -23 56 -48 60 -54z
m-2737 59 c0 -3 -4 -8 -10 -11 -5 -3 -10 -1 -10 4 0 6 5 11 10 11 6 0 10 -2
10 -4z m-63 -82 c-3 -3 -12 -4 -19 -1 -8 3 -5 6 6 6 11 1 17 -2 13 -5z m2768
-24 c3 -5 1 -10 -4 -10 -6 0 -11 5 -11 10 0 6 2 10 4 10 3 0 8 -4 11 -10z
m-10618 -122 c-3 -7 -5 -2 -5 12 0 14 2 19 5 13 2 -7 2 -19 0 -25z m4028 -158
c-3 -5 -12 -10 -18 -10 -7 0 -6 4 3 10 19 12 23 12 15 0z m3435 -110 c0 -5 -8
-10 -17 -10 -15 0 -16 2 -3 10 19 12 20 12 20 0z m-208 -253 c-12 -7 -19 -16
-16 -20 4 -4 2 -7 -5 -7 -7 0 -9 -4 -6 -10 4 -6 -1 -7 -11 -3 -11 4 -15 3 -10
-5 3 -6 -3 -13 -14 -17 -11 -4 -17 -11 -14 -17 5 -7 2 -8 -5 -4 -14 9 70 96
92 96 6 -1 2 -6 -11 -13z m-482 -391 c0 -2 -7 -7 -16 -10 -8 -3 -12 -2 -9 4 6
10 25 14 25 6z m-80 -110 c0 -2 -7 -7 -16 -10 -8 -3 -12 -2 -9 4 6 10 25 14
25 6z m-5757 -91 c0 -6 -7 -11 -16 -11 -16 -2 -16 -1 -1 3 14 4 15 7 3 15 -11
7 -11 9 -1 6 8 -2 14 -8 15 -13z m5362 -185 c-16 -16 -31 -27 -34 -24 -5 4 48
53 58 54 3 0 -8 -13 -24 -30z m-315 -234 c0 -2 -11 -11 -25 -20 -14 -9 -25
-12 -25 -6 0 6 10 15 23 20 27 11 27 11 27 6z m-70 -50 c0 -2 -8 -10 -17 -17
-16 -13 -17 -12 -4 4 13 16 21 21 21 13z m-245 -124 c-49 -43 -105 -83 -105
-75 0 6 23 27 52 47 48 33 76 48 53 28z m-45 -96 c0 -3 -4 -8 -10 -11 -5 -3
-10 -1 -10 4 0 6 5 11 10 11 6 0 10 -2 10 -4z m-2790 -221 c-7 -9 -15 -13 -17
-11 -7 7 7 26 19 26 6 0 6 -6 -2 -15z m-80 -135 c0 -5 -5 -10 -11 -10 -5 0 -7
5 -4 10 3 6 8 10 11 10 2 0 4 -4 4 -10z m1670 -124 c0 -8 -71 -48 -76 -43 -3
2 10 14 28 25 33 20 48 26 48 18z m-3016 -43 c-36 -48 -52 -65 -32 -33 8 14
20 35 27 48 6 12 16 22 22 22 5 0 -2 -17 -17 -37z m-57 0 c-8 -17 -13 -20 -19
-11 -7 12 -12 4 -9 -14 0 -5 -3 -8 -9 -8 -5 0 -10 -5 -10 -12 0 -14 -40 -58
-53 -58 -5 0 -4 7 3 15 7 9 10 18 7 22 -4 3 5 17 19 30 14 12 21 23 17 23 -4
0 0 5 10 11 9 5 22 7 29 3 7 -5 9 -2 6 8 -4 8 -1 15 7 15 10 0 11 -6 2 -24z
m2912 -30 c-32 -34 -213 -163 -229 -163 -7 0 20 23 60 51 40 29 92 70 114 93
23 23 49 42 60 43 17 2 16 -1 -5 -24z m-2955 -105 c-16 -32 -16 -32 1 -18 14
12 13 6 -6 -30 -13 -25 -24 -49 -24 -55 -1 -5 -6 -19 -13 -30 -9 -16 -13 -17
-21 -6 -7 11 -10 9 -16 -8 -3 -12 -11 -18 -17 -15 -8 5 -9 1 -5 -10 4 -9 3
-15 -1 -12 -15 9 -4 92 17 129 21 37 17 48 -9 25 -7 -7 -3 2 9 20 12 17 30 32
39 31 12 0 11 -3 -5 -9 -13 -5 -23 -12 -23 -16 0 -3 6 -4 14 -1 15 6 15 -18 1
-46 -6 -11 -1 -6 46 56 28 36 33 34 13 -5z m1376 22 c0 -5 -10 -15 -22 -21
-23 -12 -23 -12 -4 10 21 23 26 26 26 11z m10613 -27 c-7 -2 -19 -2 -25 0 -7
3 -2 5 12 5 14 0 19 -2 13 -5z m10 -20 c-7 -2 -19 -2 -25 0 -7 3 -2 5 12 5 14
0 19 -2 13 -5z m10 -20 c-7 -2 -19 -2 -25 0 -7 3 -2 5 12 5 14 0 19 -2 13 -5z
m-12103 -7 c0 -2 -7 -7 -16 -10 -8 -3 -12 -2 -9 4 6 10 25 14 25 6z m12107
-12 c-3 -3 -12 -4 -19 -1 -8 3 -5 6 6 6 11 1 17 -2 13 -5z m-12127 -19 c0 -3
-9 -18 -21 -34 -11 -15 -22 -34 -23 -42 -6 -30 -19 -49 -32 -49 -12 0 -13 4
-2 23 7 12 13 24 13 27 6 29 65 98 65 75z m-860 -120 c0 -5 -5 -3 -10 5 -5 8
-10 20 -10 25 0 6 5 3 10 -5 5 -8 10 -19 10 -25z m130 -75 c7 -19 38 -84 67
-143 30 -60 52 -114 50 -120 -2 -7 -17 15 -32 48 -46 98 -125 279 -125 284 0
11 27 -36 40 -69z m2980 10 c-24 -19 -40 -25 -40 -15 0 5 51 34 60 34 3 0 -6
-8 -20 -19z m9982 -8 c-14 -2 -18 -9 -15 -23 8 -29 -4 -23 -22 11 -20 39 -20
39 21 26 26 -8 30 -12 16 -14z m-13006 -119 c3 3 1 14 -5 25 -6 12 -11 27 -10
34 0 18 78 -150 84 -182 3 -15 12 -46 20 -71 9 -24 12 -39 7 -34 -5 6 -19 35
-30 65 -28 75 -52 120 -63 120 -6 0 -7 5 -4 10 3 6 2 10 -3 10 -5 0 -18 24
-30 53 -33 86 -34 96 -2 28 17 -35 33 -61 36 -58z m13051 101 c-3 -3 -12 -4
-19 -1 -8 3 -5 6 6 6 11 1 17 -2 13 -5z m-2 -94 c-3 -5 -1 -10 5 -10 6 0 8 -4
5 -10 -3 -5 -1 -10 6 -10 7 0 10 -3 6 -6 -3 -4 0 -22 9 -42 16 -40 12 -52 -10
-29 -8 8 -12 17 -9 21 4 3 1 6 -6 6 -7 0 -9 5 -6 10 3 6 1 10 -5 10 -6 0 -8 5
-5 10 3 6 0 10 -7 10 -9 0 -9 3 2 10 9 6 11 10 3 10 -7 0 -10 7 -7 15 4 8 10
15 16 15 5 0 6 -4 3 -10z m55 0 c0 -5 -4 -10 -10 -10 -5 0 -10 5 -10 10 0 6 5
10 10 10 6 0 10 -4 10 -10z m-10 -140 c-13 -8 -12 -10 3 -10 24 0 51 -26 37
-35 -13 -8 -3 -25 13 -25 7 0 6 4 -3 10 -10 6 -11 10 -2 10 6 0 12 8 12 17 0
24 8 12 14 -20 4 -23 1 -27 -17 -27 -12 0 -33 -3 -47 -5 -23 -5 -23 -5 -4 4
16 7 20 16 17 35 -3 14 -12 26 -20 26 -8 0 -12 -4 -8 -9 3 -5 2 -12 -3 -15 -5
-3 -9 3 -9 12 -2 27 5 42 19 42 9 0 8 -3 -2 -10z m-13027 -142 c73 -178 49
-142 -37 55 -14 31 -21 57 -17 57 5 0 29 -50 54 -112z m13034 76 c-3 -3 -12
-4 -19 -1 -8 3 -5 6 6 6 11 1 17 -2 13 -5z m-12842 -144 c-3 -6 3 -14 14 -18
11 -4 40 -38 64 -75 45 -68 45 -68 61 -45 11 15 16 17 16 8 0 -10 7 -6 21 10
l20 25 -15 -30 c-25 -51 -73 -112 -89 -112 -12 0 -12 6 4 34 10 18 14 33 9 33
-6 0 -10 -4 -10 -10 0 -5 -5 -10 -11 -10 -9 0 -159 297 -159 317 0 4 18 -20
41 -54 22 -35 38 -67 34 -73z m12918 113 c-7 -2 -19 -2 -25 0 -7 3 -2 5 12 5
14 0 19 -2 13 -5z m-46 -39 c-3 -3 -12 -4 -19 -1 -8 3 -5 6 6 6 11 1 17 -2 13
-5z m0 -20 c-3 -3 -12 -4 -19 -1 -8 3 -5 6 6 6 11 1 17 -2 13 -5z m-12932
-112 c2 -9 6 -26 9 -37 4 -11 -5 3 -18 30 -14 28 -25 54 -25 60 -1 15 30 -33
34 -53z m12918 51 c-7 -2 -19 -2 -25 0 -7 3 -2 5 12 5 14 0 19 -2 13 -5z
m-2570 -187 l23 -23 -20 -25 c-12 -14 -29 -24 -39 -23 -14 3 -15 0 -8 -9 8
-10 -7 -29 -60 -76 -38 -35 -68 -68 -65 -75 4 -12 -33 -51 -45 -48 -4 1 -5 -6
-2 -15 3 -12 -18 -39 -64 -84 -100 -97 -135 -125 -438 -361 -21 -16 -86 -57
-91 -57 -3 0 -29 -16 -59 -35 -30 -19 -55 -32 -55 -30 0 3 -10 1 -22 -6 -20
-10 -21 -10 -8 3 27 27 358 285 388 303 30 18 43 35 37 45 -4 6 -3 10 2 9 23
-4 32 2 26 19 -6 15 -5 16 12 2 13 -11 16 -11 11 -2 -6 10 32 55 125 151 131
134 258 271 250 271 -2 0 7 9 20 20 13 10 20 19 15 20 -8 0 32 50 40 50 2 0
14 -11 27 -24z m2188 -299 c-6 -8 -9 -17 -6 -21 3 -3 -1 -1 -7 4 -10 9 -10 13
2 20 21 13 24 12 11 -3z m-40 -70 c-6 -8 -9 -16 -6 -19 3 -2 -1 -5 -9 -5 -8 0
-11 8 -8 19 2 10 11 18 19 18 12 0 13 -3 4 -13z m-2768 -72 c-3 -9 -8 -14 -10
-11 -3 3 -2 9 2 15 9 16 15 13 8 -4z m-8412 -142 c-12 -20 -14 -14 -5 12 4 9
9 14 11 11 3 -2 0 -13 -6 -23z m11249 -47 c0 -3 -7 -12 -16 -20 -22 -22 -44
-20 -44 4 0 16 7 20 30 20 17 0 30 -2 30 -4z m-156 -133 c27 -15 11 -34 -22
-27 -30 7 -54 24 -33 24 7 0 9 5 6 10 -8 12 23 8 49 -7z m-12864 -37 c0 -2 -8
-10 -17 -17 -16 -13 -17 -12 -4 4 13 16 21 21 21 13z m-29 -101 c-18 -36 -81
-125 -88 -125 -3 0 2 11 11 25 9 14 14 25 11 25 -3 0 0 10 7 23 7 12 11 27 9
32 -1 6 1 7 5 3 9 -9 37 29 30 40 -2 4 3 8 13 8 16 0 16 -3 2 -31z m1507 -55
c-20 -27 -23 -29 -37 -15 -16 16 -24 78 -9 69 4 -3 16 -1 25 5 13 7 21 4 31
-10 11 -16 10 -23 -10 -49z m8236 35 c-4 -8 -10 -13 -14 -10 -5 3 -13 -3 -19
-12 -6 -10 -11 -13 -11 -6 0 6 10 19 22 27 28 20 29 20 22 1z m-8097 -122 c77
-97 282 -298 353 -346 25 -17 71 -52 102 -78 32 -26 83 -62 113 -79 30 -17 58
-36 61 -42 5 -7 2 -8 -7 -3 -8 5 -11 4 -6 -1 5 -5 14 -9 19 -9 6 0 18 -14 27
-30 10 -20 54 -56 130 -105 112 -73 295 -180 307 -180 3 0 23 -13 44 -30 21
-16 42 -30 46 -30 5 -1 23 -12 39 -26 l30 -26 -43 22 c-54 26 -86 20 -51 -10
l24 -19 -35 10 c-19 6 -48 18 -65 27 -123 64 -215 116 -245 140 -57 46 -220
153 -220 145 0 -4 -17 9 -37 28 -61 57 -150 129 -160 129 -5 0 -55 46 -113
103 -57 56 -97 98 -89 92 8 -5 6 -3 -4 5 -25 19 -74 67 -108 105 -45 51 -189
164 -189 148 0 -3 -9 2 -20 12 -10 9 -18 20 -17 24 0 3 -4 16 -11 29 -11 19
-10 27 8 52 12 17 27 30 34 30 8 0 45 -39 83 -87z m8017 61 c3 -8 2 -12 -4 -9
-6 3 -10 10 -10 16 0 14 7 11 14 -7z m-60 -55 c-21 -21 -40 -37 -42 -34 -2 2
-16 -1 -31 -6 -25 -9 -25 -9 5 18 74 65 99 83 103 72 2 -6 -14 -28 -35 -50z
m-204 -144 c-7 -8 -17 -15 -23 -15 -6 0 -2 7 9 15 25 19 30 19 14 0z m-61 -36
c-13 -10 -27 -16 -30 -13 -4 2 -9 -2 -12 -8 -2 -7 -8 -9 -13 -5 -10 10 25 39
37 31 5 -3 9 -1 9 4 0 5 7 9 16 9 12 0 10 -5 -7 -18z m-75 -34 c-4 -8 -11 -15
-16 -15 -6 0 -5 6 2 15 7 8 14 15 16 15 2 0 1 -7 -2 -15z m-227 -27 c-3 -8 -6
-5 -6 6 -1 11 2 17 5 13 3 -3 4 -12 1 -19z m-26 -15 c-8 -15 -10 -15 -11 -2 0
17 10 32 18 25 2 -3 -1 -13 -7 -23z m-44 -15 c-3 -8 -6 -5 -6 6 -1 11 2 17 5
13 3 -3 4 -12 1 -19z m-24 -9 c-4 -16 -8 -17 -14 -7 -7 11 -9 10 -9 -1 0 -8
-3 -11 -7 -7 -5 4 1 14 11 22 25 18 25 18 19 -7z m-53 -36 c-11 -17 -11 -17
-6 0 3 10 6 24 7 30 0 9 2 9 5 0 3 -7 0 -20 -6 -30z m206 19 c-11 -17 -65 -32
-72 -20 -4 6 -3 8 3 5 5 -3 22 3 38 13 29 19 42 20 31 2z m-6955 -116 c35 -32
57 -55 49 -50 -16 8 -140 106 -140 110 0 13 39 -12 91 -60z m211 -129 c32 -21
61 -43 64 -49 4 -6 -14 3 -39 21 -25 17 -50 30 -54 29 -4 -2 -9 1 -10 5 -1 4
-12 17 -25 28 -30 27 -7 14 64 -34z m-51 -354 c13 -16 12 -17 -3 -4 -10 7 -18
15 -18 17 0 8 8 3 21 -13z m7218 -148 c-16 -17 -269 -130 -378 -169 -36 -13
-79 -30 -96 -37 -16 -7 -41 -14 -55 -16 -14 -2 -37 -10 -53 -18 -19 -9 -25
-10 -20 -2 4 7 0 6 -10 -2 -9 -7 -17 -10 -17 -7 0 4 -6 4 -12 -1 -13 -8 -18
-9 -51 -11 -10 -1 -16 -6 -13 -11 4 -5 -4 -7 -16 -3 -12 3 -19 1 -15 -4 3 -6
-10 -9 -31 -9 -45 2 -102 -15 -102 -30 0 -16 -195 -70 -508 -141 -15 -3 -21
-1 -17 6 3 5 -2 10 -12 11 -24 1 -3 7 184 59 84 23 157 39 163 35 5 -3 10 -2
10 3 0 5 10 10 23 10 40 1 369 102 448 137 42 19 83 35 91 35 18 0 104 45 124
65 12 11 101 43 140 49 6 1 22 9 35 17 15 10 38 15 61 12 21 -2 56 5 85 16 59
24 61 25 42 6z m-6958 -111 c9 -11 1 -9 -23 7 -21 13 -40 30 -43 37 -6 16 45
-19 66 -44z m456 -2 c49 -18 64 -11 38 18 -18 19 -9 29 11 11 5 -5 69 -39 142
-76 72 -37 132 -72 132 -76 0 -5 6 -9 14 -9 8 0 21 -9 29 -20 8 -11 16 -17 19
-14 3 3 9 1 12 -4 8 -13 -93 -12 -121 1 -13 6 -23 14 -23 19 0 5 -4 7 -9 4 -5
-4 -11 -2 -13 4 -1 5 -87 50 -190 100 -185 89 -238 120 -135 79 28 -12 71 -28
94 -37z m-391 -33 c29 -32 29 -32 2 -15 -14 10 -29 24 -32 32 -8 20 -3 18 30
-17z m70 -41 l29 -33 -32 29 c-31 28 -38 36 -30 36 2 0 16 -15 33 -32z m89
-56 c-6 -7 -45 19 -45 29 0 5 11 2 24 -8 13 -10 23 -19 21 -21z m310 -150 c-3
-3 -11 0 -18 7 -9 10 -8 11 6 5 10 -3 15 -9 12 -12z m58 -17 c20 -8 39 -19 42
-25 4 -6 10 -8 15 -5 4 3 13 -2 20 -10 7 -8 17 -12 22 -9 5 3 18 -2 29 -12 10
-9 19 -14 19 -9 0 4 7 2 15 -5 8 -6 18 -9 23 -6 5 3 22 -9 38 -26 16 -18 21
-26 12 -19 -10 7 -18 10 -18 6 0 -5 -9 0 -20 10 -11 10 -20 15 -20 11 0 -3
-22 5 -50 19 -27 14 -52 24 -54 23 -2 -2 -14 6 -26 17 -12 11 -23 19 -24 17
-3 -5 -66 23 -66 30 0 11 2 10 43 -7z m897 6 c0 -5 6 -8 13 -7 21 2 197 -57
197 -67 0 -18 -89 0 -154 32 -62 30 -90 51 -67 51 6 0 11 -4 11 -9z m-126 -50
c3 -5 27 -14 53 -21 27 -8 51 -14 56 -15 4 -2 10 -3 14 -4 3 0 4 -4 1 -7 -8
-8 -111 24 -134 41 -10 8 -14 15 -7 15 6 0 14 -4 17 -9z m-3524 -51 c0 -5 -2
-10 -4 -10 -3 0 -8 5 -11 10 -3 6 -1 10 4 10 6 0 11 -4 11 -10z m3040 -20 c3
-1 10 -1 15 0 6 1 7 -2 3 -6 -4 -4 -3 -13 3 -20 6 -7 6 -14 1 -18 -10 -6 -30
12 -31 29 -1 6 -5 10 -10 10 -5 0 -12 3 -16 7 -6 5 19 4 35 -2z m884 -44 c89
-25 179 -48 201 -51 68 -11 80 -16 64 -26 -9 -6 -10 -9 -2 -9 6 0 15 5 18 10
10 16 25 12 19 -5 -7 -17 11 -21 21 -5 3 6 11 10 18 10 6 0 3 -6 -8 -14 -17
-12 -16 -13 11 -20 16 -4 38 -10 48 -13 15 -4 18 -2 12 12 -5 14 -2 16 16 11
13 -4 43 -9 68 -12 25 -4 50 -11 57 -16 7 -6 14 -5 18 2 5 8 11 7 23 -2 12
-10 14 -10 8 0 -4 7 -2 12 8 12 8 0 18 -5 21 -10 4 -6 11 -7 17 -4 6 4 8 2 4
-4 -6 -10 7 -17 51 -27 82 -19 135 -34 140 -39 11 -11 -19 -7 -171 24 -82 17
-154 29 -160 26 -6 -2 -1 -5 12 -5 12 -1 22 -5 22 -10 0 -8 -452 103 -524 129
-17 6 -41 13 -53 16 -12 2 -55 18 -95 34 -106 43 -51 37 136 -14z m-3954 30
c0 -3 -9 -21 -21 -40 -21 -36 -44 -50 -33 -21 4 8 11 15 17 15 6 0 7 3 4 6 -8
9 11 44 23 44 6 0 10 -2 10 -4z m-489 -29 c-6 -8 -8 -17 -4 -20 3 -4 2 -7 -4
-7 -6 0 -13 -8 -17 -17 -8 -25 -27 -54 -51 -76 -11 -10 -14 -15 -6 -11 26 13
6 -20 -86 -141 -48 -64 -113 -154 -143 -199 -30 -46 -71 -105 -90 -131 -113
-156 -179 -242 -198 -259 -12 -10 -19 -23 -16 -27 3 -5 0 -9 -6 -9 -6 0 -9 -4
-5 -9 3 -6 -1 -13 -8 -18 -7 -4 -24 -24 -37 -43 -32 -47 -190 -250 -214 -275
-36 -38 21 53 123 193 53 74 110 155 128 182 31 48 90 128 121 165 9 11 17 26
18 34 2 7 8 19 15 25 9 8 10 8 5 -1 -10 -19 -1 -16 15 4 10 11 10 14 2 9 -21
-12 -15 1 40 87 56 86 111 142 129 131 7 -5 8 -2 2 7 -11 18 -14 40 -5 34 12
-7 73 74 65 87 -4 6 -3 8 3 5 13 -8 35 16 31 34 -2 7 3 13 11 14 8 0 16 6 19
14 3 9 0 11 -8 6 -7 -4 -6 4 4 23 9 17 20 34 26 37 6 4 7 12 4 18 -4 7 -4 9 0
5 5 -4 38 27 74 68 37 41 69 74 71 74 2 0 -2 -6 -8 -13z m3937 -100 c12 -2 24
-6 28 -10 4 -3 -3 -4 -15 -2 -44 8 -61 17 -55 27 4 7 9 7 13 -1 4 -6 17 -12
29 -14z m-4958 -17 c-12 -16 -26 -30 -31 -30 -6 0 -8 -4 -4 -9 3 -6 -4 -15
-15 -21 -11 -6 -18 -15 -15 -20 3 -5 1 -11 -4 -14 -17 -11 -22 12 -6 27 8 9
15 20 15 26 0 5 9 16 20 24 11 8 17 17 12 22 -4 5 -2 5 4 2 7 -4 14 0 18 8 3
8 10 15 16 15 6 0 2 -13 -10 -30z m5850 20 c0 -5 -2 -10 -4 -10 -3 0 -8 5 -11
10 -3 6 -1 10 4 10 6 0 11 -4 11 -10z m-724 -62 c3 -4 -1 -5 -10 -4 -8 1 -18
5 -22 8 -3 4 1 5 10 4 8 -1 18 -5 22 -8z m3711 -14 c-3 -3 -23 -8 -44 -10 -31
-3 -34 -2 -13 5 30 11 66 14 57 5z m-3619 -13 c6 -1 12 -6 12 -11 0 -7 -6 -7
-19 0 -14 7 -21 6 -23 -2 -3 -8 -7 -6 -10 4 -5 11 -2 15 10 13 9 -2 23 -4 30
-4z m88 -33 c3 -4 -1 -5 -10 -4 -8 1 -18 5 -22 8 -3 4 1 5 10 4 8 -1 18 -5 22
-8z m-5415 -32 c-11 -19 -17 -37 -13 -42 4 -4 2 -4 -4 -1 -12 7 -24 -12 -31
-46 -1 -10 -45 -82 -96 -160 -52 -78 -122 -186 -157 -239 -34 -54 -65 -98 -67
-98 -4 0 -2 5 32 60 39 63 96 170 91 170 -3 0 -17 -18 -31 -40 -14 -23 -30
-38 -35 -35 -5 3 -25 -19 -45 -49 -30 -46 -80 -101 -63 -71 8 16 21 49 24 62
5 25 45 81 68 96 12 9 38 38 55 66 18 28 40 51 50 51 16 1 91 89 91 108 0 5 7
16 17 23 9 8 40 51 70 97 55 83 78 110 44 48z m5909 -31 c96 -19 207 -37 245
-41 115 -11 205 -28 244 -48 14 -8 46 -17 71 -21 72 -11 119 -27 124 -42 4 -9
2 -11 -6 -7 -7 5 -62 9 -123 10 -60 1 -151 9 -202 17 -51 8 -101 13 -112 10
-10 -2 -22 0 -25 6 -4 5 -14 7 -23 4 -9 -4 -21 1 -29 12 -9 12 -14 14 -14 6 0
-10 -3 -11 -14 -2 -9 8 -16 8 -20 2 -5 -7 -15 -7 -31 -1 -14 5 -25 7 -25 3 0
-4 -7 2 -16 13 -8 10 -12 12 -8 4 7 -13 5 -13 -9 -1 -9 7 -23 11 -32 8 -8 -4
-17 -2 -20 3 -3 5 -14 7 -25 5 -12 -2 -18 0 -15 5 3 4 -9 13 -25 19 -17 5 -30
7 -30 4 0 -3 -6 -1 -12 4 -7 6 -26 14 -43 18 -16 4 -39 9 -50 12 -11 3 -27 6
-36 6 -9 1 -22 8 -29 15 -11 12 -7 13 30 7 29 -5 40 -4 36 3 -8 13 -9 13 224
-33z m2790 35 c0 -12 -111 -34 -213 -44 -74 -7 -20 15 79 32 107 19 134 21
134 12z m-3120 -11 c0 -4 -7 -9 -15 -13 -9 -3 -15 0 -15 8 0 7 7 13 15 13 8 0
15 -4 15 -8z m2854 -30 c-3 -5 -31 -8 -62 -8 -48 1 -51 3 -22 8 53 9 90 9 84
0z m-1294 -36 c70 -4 81 -7 60 -15 -14 -6 -47 -10 -75 -9 -88 1 -265 23 -265
32 0 9 74 7 280 -8z m-317 -20 c-7 -2 -19 -2 -25 0 -7 3 -2 5 12 5 14 0 19 -2
13 -5z m-5699 -48 c-14 -19 -29 -35 -31 -35 -5 0 7 18 36 53 26 31 23 18 -5
-18z m-34 -49 c0 -2 -8 -10 -17 -17 -16 -13 -17 -12 -4 4 13 16 21 21 21 13z
m5814 -16 c3 -3 -19 -5 -49 -5 -29 0 -52 2 -50 5 5 7 92 7 99 0z m96 -1 c0 9
4 10 13 4 6 -6 30 -9 51 -7 22 2 36 1 32 -3 -11 -12 -126 -12 -133 0 -3 6 -1
7 5 3 7 -4 12 -1 12 6 0 9 3 9 10 -2 8 -12 10 -12 10 -1z m-5940 -23 c0 -2 -8
-10 -17 -17 -16 -13 -17 -12 -4 4 13 16 21 21 21 13z m5617 -22 c-3 -3 -12 -4
-19 -1 -8 3 -5 6 6 6 11 1 17 -2 13 -5z m106 -11 c-13 -2 -35 -2 -50 0 -16 2
-5 4 22 4 28 0 40 -2 28 -4z m77 1 c0 -8 -19 -13 -24 -6 -3 5 1 9 9 9 8 0 15
-2 15 -3z m-5873 -47 c0 -8 -6 -14 -14 -14 -9 0 -10 4 -2 14 6 7 12 13 14 13
1 0 2 -6 2 -13z m-25 -34 c-6 -2 -10 -8 -7 -13 3 -4 -9 -20 -25 -34 -17 -14
-30 -28 -30 -31 1 -19 -1 -23 -14 -28 -25 -10 -11 25 20 50 16 12 25 23 20 23
-5 0 -1 9 9 20 10 11 23 20 29 19 6 0 6 -3 -2 -6z m-1282 -129 c-18 -21 -24
-10 -9 18 8 14 14 18 17 10 2 -7 -2 -19 -8 -28z m1385 7 c3 -5 2 -12 -3 -15
-5 -3 -9 1 -9 9 0 17 3 19 12 6z m-195 -6 c0 -2 -46 -62 -102 -132 -57 -70
-115 -145 -131 -165 -15 -21 -33 -38 -41 -38 -8 0 -24 -15 -35 -34 -12 -19
-29 -40 -38 -47 -9 -8 0 9 21 38 21 29 49 62 64 73 15 12 20 18 12 14 -9 -4
-7 2 6 17 11 13 53 65 94 114 71 87 141 165 147 165 2 0 3 -2 3 -5z m-360
-439 c0 -2 -8 -10 -17 -17 -16 -13 -17 -12 -4 4 13 16 21 21 21 13z m227 -41
c0 -8 -4 -15 -9 -15 -10 0 -11 14 -1 23 9 10 10 9 10 -8z m-561 -117 c-14 -18
-45 -58 -68 -88 -23 -30 -99 -122 -168 -205 -69 -82 -171 -206 -227 -275 -83
-102 -187 -216 -147 -160 57 78 198 256 220 275 6 6 26 30 45 55 18 25 58 75
89 111 30 37 78 95 105 130 54 67 165 189 173 189 2 0 -7 -15 -22 -32z m380
-50 c4 -6 3 -8 -3 -5 -6 4 -14 0 -17 -9 -3 -8 -11 -12 -17 -8 -9 5 -6 11 6 21
23 16 22 16 31 1z m-43 -54 c-4 -12 -8 -13 -14 -3 -9 15 -2 32 11 24 5 -3 6
-13 3 -21z m-872 -897 c-10 -9 -11 -8 -5 6 3 10 9 15 12 12 3 -3 0 -11 -7 -18z"/>
<path d="M10222 14171 c-6 -17 -7 -33 -3 -36 9 -5 25 55 17 62 -2 2 -8 -10
-14 -26z"/>
<path d="M10161 13963 c-1 -6 -4 -20 -7 -30 -5 -17 -5 -17 6 0 6 10 9 23 6 30
-3 9 -5 9 -5 0z"/>
<path d="M11165 12024 c3 -20 10 -47 16 -61 7 -20 11 -22 23 -11 12 11 12 14
-3 20 -10 4 -11 7 -3 7 7 1 10 6 7 11 -4 6 -12 7 -18 4 -9 -5 -9 -4 -1 5 15
16 7 48 -13 55 -13 5 -14 0 -8 -30z"/>
<path d="M9573 11863 c9 -2 23 -2 30 0 6 3 -1 5 -18 5 -16 0 -22 -2 -12 -5z"/>
<path d="M9620 11861 c0 -8 250 -65 256 -58 5 5 -105 36 -188 52 -38 7 -68 10
-68 6z"/>
<path d="M9466 11723 c-6 -14 -5 -15 5 -6 7 7 10 15 7 18 -3 3 -9 -2 -12 -12z"/>
<path d="M11170 11693 c1 -18 18 -35 24 -24 4 6 2 11 -4 11 -6 0 -8 5 -5 10 3
6 1 10 -4 10 -6 0 -11 -3 -11 -7z"/>
<path d="M9416 11675 c-3 -8 -1 -15 4 -15 6 0 10 7 10 15 0 8 -2 15 -4 15 -2
0 -6 -7 -10 -15z"/>
<path d="M11200 11660 c-7 -23 -7 -40 1 -40 6 0 7 -5 3 -12 -5 -7 -3 -8 6 -3
10 6 12 4 8 -7 -4 -8 4 -34 17 -57 15 -25 19 -41 12 -41 -7 0 -6 -4 3 -10 8
-5 11 -10 7 -10 -5 0 7 -29 26 -64 20 -35 33 -67 30 -70 -4 -3 -1 -6 6 -6 7 0
10 -4 7 -9 -3 -5 7 -32 24 -62 16 -29 26 -57 24 -61 -3 -4 0 -8 6 -8 6 0 8 -4
5 -10 -3 -5 -1 -10 4 -10 6 0 11 2 11 4 0 7 -92 230 -107 259 -8 16 -16 39
-19 50 -2 12 -8 23 -14 25 -6 2 -8 8 -4 13 3 5 0 9 -6 9 -6 0 -8 5 -5 10 3 6
2 10 -4 10 -6 0 -8 6 -6 13 3 6 -4 30 -14 52 -11 22 -20 38 -21 35z"/>
<path d="M11400 11414 c0 -6 11 -25 24 -42 20 -28 25 -30 30 -15 4 10 4 14 0
10 -4 -4 -18 8 -31 25 -12 18 -23 27 -23 22z"/>
<path d="M11065 11319 c44 -17 89 -36 100 -41 19 -11 19 -10 2 9 -10 11 -41
28 -70 36 -96 30 -113 28 -32 -4z"/>
<path d="M11454 11308 c8 -13 14 -26 13 -30 -1 -4 6 -16 15 -27 12 -14 13 -21
5 -25 -7 -2 -4 -5 6 -5 10 -1 16 -5 13 -9 -2 -4 0 -14 5 -22 7 -12 8 -11 5 5
-11 62 -20 87 -32 92 -8 3 -11 9 -8 14 3 5 -1 9 -8 9 -9 0 -9 3 2 10 12 8 11
10 -8 10 -21 0 -22 -1 -8 -22z"/>
<path d="M11520 11255 c0 -5 5 -17 10 -25 5 -8 10 -10 10 -5 0 6 -5 17 -10 25
-5 8 -10 11 -10 5z"/>
<path d="M11435 11170 c-3 -6 1 -7 9 -4 18 7 21 14 7 14 -6 0 -13 -4 -16 -10z"/>
<path d="M13880 12805 c0 -8 4 -15 10 -15 5 0 7 7 4 15 -4 8 -8 15 -10 15 -2
0 -4 -7 -4 -15z"/>
<path d="M13880 12780 c-1 -3 -4 -15 -5 -28 -1 -15 1 -20 7 -14 6 6 8 18 5 28
-3 11 -6 17 -7 14z"/>
<path d="M14846 12630 c3 -14 11 -32 16 -40 6 -10 7 -7 2 10 -3 14 -11 32 -16
40 -6 10 -7 7 -2 -10z"/>
<path d="M14993 12250 c17 -61 40 -121 47 -125 11 -7 -23 96 -40 122 -7 12
-10 13 -7 3z"/>
<path d="M13602 11913 c-12 -21 -42 -122 -42 -137 1 -16 37 68 49 111 12 41 8
55 -7 26z"/>
<path d="M13535 10510 c-16 -7 -17 -9 -3 -9 9 -1 20 4 23 9 7 11 7 11 -20 0z"/>
<path d="M13545 10490 c-16 -7 -17 -9 -3 -9 9 -1 20 4 23 9 7 11 7 11 -20 0z"/>
<path d="M13548 10463 c7 -3 16 -2 19 1 4 3 -2 6 -13 5 -11 0 -14 -3 -6 -6z"/>
<path d="M13678 10405 c-4 -4 7 -34 23 -67 39 -78 50 -68 13 12 -16 34 -32 59
-36 55z"/>
<path d="M13950 9875 c0 -5 5 -17 10 -25 5 -8 10 -10 10 -5 0 6 -5 17 -10 25
-5 8 -10 11 -10 5z"/>
<path d="M14269 9394 c52 -42 151 -115 151 -110 0 7 -135 113 -160 125 -18 9
-16 5 9 -15z"/>
<path d="M14390 9146 c0 -2 8 -10 18 -17 15 -13 16 -12 3 4 -13 16 -21 21 -21
13z"/>
<path d="M15310 8406 c0 -2 8 -10 18 -17 15 -13 16 -12 3 4 -13 16 -21 21 -21
13z"/>
<path d="M10955 10070 c-3 -5 -2 -10 4 -10 5 0 13 5 16 10 3 6 2 10 -4 10 -5
0 -13 -4 -16 -10z"/>
<path d="M11079 10033 c-13 -16 -12 -17 4 -4 9 7 17 15 17 17 0 8 -8 3 -21
-13z"/>
<path d="M7008 6953 c7 -3 16 -2 19 1 4 3 -2 6 -13 5 -11 0 -14 -3 -6 -6z"/>
<path d="M6690 6405 c-20 -24 -6 -28 15 -5 10 11 13 20 8 20 -6 0 -16 -7 -23
-15z"/>
<path d="M6843 6345 c0 -8 4 -12 9 -9 4 3 8 9 8 15 0 5 -4 9 -8 9 -5 0 -9 -7
-9 -15z"/>
<path d="M6630 6295 c-7 -9 -11 -17 -9 -20 3 -2 10 5 17 15 14 24 10 26 -8 5z"/>
<path d="M6072 9758 c-52 -48 -66 -62 -167 -168 -38 -41 -4 -12 78 64 81 76
147 140 147 142 0 10 -14 1 -58 -38z"/>
<path d="M5925 9670 c3 -5 1 -10 -6 -10 -7 0 -10 -2 -7 -5 8 -9 38 6 32 16 -3
5 -10 9 -15 9 -6 0 -7 -4 -4 -10z"/>
<path d="M5897 9639 c7 -7 15 -10 18 -7 3 3 -2 9 -12 12 -14 6 -15 5 -6 -5z"/>
<path d="M5875 9610 c-4 -11 -11 -18 -16 -15 -5 4 -9 2 -9 -4 0 -5 -7 -17 -16
-25 -8 -9 -10 -16 -4 -16 6 0 13 7 16 15 3 8 14 17 25 20 11 4 17 10 14 15 -3
5 0 10 7 12 9 3 9 6 1 11 -7 4 -14 -1 -18 -13z"/>
<path d="M5091 6804 c0 -11 3 -14 6 -6 3 7 2 16 -1 19 -3 4 -6 -2 -5 -13z"/>
<path d="M5101 6764 c0 -11 3 -14 6 -6 3 7 2 16 -1 19 -3 4 -6 -2 -5 -13z"/>
<path d="M12280 9312 c1 -19 17 -30 30 -22 8 5 11 12 7 16 -10 10 -37 14 -37
6z"/>
<path d="M12250 9180 c-18 -23 -30 -43 -28 -46 3 -2 14 8 24 22 10 15 27 35
37 46 9 10 13 18 8 18 -5 0 -24 -18 -41 -40z"/>
<path d="M12506 9171 c-4 -6 -2 -11 4 -11 6 0 8 -4 5 -10 -3 -5 -1 -10 4 -10
13 0 14 10 2 29 -6 9 -11 10 -15 2z"/>
<path d="M12190 9108 c-12 -22 -12 -22 6 -6 10 10 15 20 12 24 -4 3 -12 -5
-18 -18z"/>
<path d="M12155 9070 c-3 -5 -2 -10 4 -10 5 0 13 5 16 10 3 6 2 10 -4 10 -5 0
-13 -4 -16 -10z"/>
<path d="M12124 9028 l-19 -23 23 19 c21 18 27 26 19 26 -2 0 -12 -10 -23 -22z"/>
<path d="M12084 8978 l-19 -23 23 19 c21 18 27 26 19 26 -2 0 -12 -10 -23 -22z"/>
<path d="M11299 8181 c-30 -28 -51 -50 -48 -51 3 0 17 10 31 23 13 12 37 33
53 45 15 12 26 25 23 28 -3 3 -30 -18 -59 -45z"/>
<path d="M11189 8083 l-24 -28 30 25 c17 14 32 26 34 28 2 1 0 2 -6 2 -5 0
-20 -12 -34 -27z"/>
<path d="M10765 7720 c-3 -6 1 -7 9 -4 18 7 21 14 7 14 -6 0 -13 -4 -16 -10z"/>
<path d="M6885 5392 c-10 -7 -18 -32 -10 -32 2 0 9 9 15 20 12 22 11 24 -5 12z"/>
<path d="M6455 5160 c-27 -16 -47 -30 -43 -30 14 0 98 44 98 52 0 11 1 11 -55
-22z"/>
<path d="M13836 4525 c-9 -26 -7 -32 5 -12 6 10 9 21 6 23 -2 3 -7 -2 -11 -11z"/>
<path d="M6567 4404 c-11 -11 53 -84 73 -84 19 0 43 -23 35 -33 -3 -4 -2 -5 2
-2 3 3 16 -3 27 -13 12 -11 29 -22 38 -25 15 -5 16 -4 6 13 -7 10 -16 17 -20
14 -4 -3 -5 1 -3 8 5 13 -42 57 -112 106 -34 24 -37 25 -46 16z"/>
<path d="M13018 4023 c-26 -7 -22 -18 6 -18 15 0 22 5 19 13 -3 6 -6 11 -7 11
0 -1 -9 -3 -18 -6z"/>
<path d="M7140 3946 c0 -2 8 -10 18 -17 15 -13 16 -12 3 4 -13 16 -21 21 -21
13z"/>
<path d="M7680 3806 c0 -3 9 -10 20 -16 11 -6 20 -8 20 -6 0 3 -9 10 -20 16
-11 6 -20 8 -20 6z"/>
<path d="M7936 3699 c3 -5 10 -7 15 -4 5 4 9 1 9 -4 0 -6 5 -11 12 -11 9 0 9
3 0 12 -14 14 -44 20 -36 7z"/>
<path d="M8595 3540 c3 -5 8 -10 11 -10 2 0 4 5 4 10 0 6 -5 10 -11 10 -5 0
-7 -4 -4 -10z"/>
<path d="M8650 3526 c19 -7 37 -12 39 -10 7 7 -3 12 -39 18 l-35 6 35 -14z"/>
<path d="M4880 5418 c-12 -22 -12 -22 6 -6 10 10 15 20 12 24 -4 3 -12 -5 -18
-18z"/>
<path d="M7540 2806 c0 -2 8 -10 18 -17 15 -13 16 -12 3 4 -13 16 -21 21 -21
13z"/>
<path d="M8940 2610 c0 -5 5 -10 10 -10 6 0 10 5 10 10 0 6 -4 10 -10 10 -5 0
-10 -4 -10 -10z"/>
<path d="M3819 2363 c-13 -16 -12 -17 4 -4 16 13 21 21 13 21 -2 0 -10 -8 -17
-17z"/>
<path d="M3730 2250 c-17 -22 -29 -40 -27 -40 3 0 20 18 37 40 17 22 29 40 27
40 -3 0 -20 -18 -37 -40z"/>
<path d="M3679 2183 c-13 -16 -12 -17 4 -4 9 7 17 15 17 17 0 8 -8 3 -21 -13z"/>
<path d="M2730 2180 c-6 -11 -8 -20 -6 -20 3 0 10 9 16 20 6 11 8 20 6 20 -3
0 -10 -9 -16 -20z"/>
<path d="M11570 18936 c0 -19 5 -38 10 -41 6 -4 8 -15 5 -25 -8 -26 11 -60 34
-60 26 0 32 10 20 33 -8 14 -8 18 0 13 20 -13 12 13 -11 34 -12 11 -28 18 -35
16 -16 -6 -17 16 -2 31 6 6 8 16 5 22 -14 22 -26 10 -26 -23z"/>
<path d="M11620 18934 c0 -3 14 -24 31 -45 27 -34 32 -37 45 -24 13 13 13 17
-3 33 -19 19 -73 46 -73 36z"/>
<path d="M12185 18710 c3 -5 11 -10 16 -10 6 0 7 5 4 10 -3 6 -11 10 -16 10
-6 0 -7 -4 -4 -10z"/>
<path d="M12229 18658 c-6 -21 -5 -37 2 -32 13 7 11 -10 -2 -23 -8 -8 -8 -13
0 -18 6 -3 10 -1 9 6 -2 6 3 14 11 17 8 3 11 0 7 -7 -4 -6 -3 -11 3 -11 5 0 9
9 8 19 0 11 -4 18 -7 16 -3 -1 -10 3 -17 10 -10 11 -10 15 0 18 9 4 9 6 0 6
-7 1 -13 0 -14 -1z"/>
<path d="M12296 18566 c3 -9 11 -16 16 -16 13 0 5 23 -10 28 -7 2 -10 -2 -6
-12z"/>
<path d="M13230 18300 c6 -11 13 -20 16 -20 2 0 0 9 -6 20 -6 11 -13 20 -16
20 -2 0 0 -9 6 -20z"/>
<path d="M13542 17920 c12 -51 22 -65 37 -56 11 7 -2 41 -33 81 -14 18 -14 16
-4 -25z"/>
<path d="M10426 17894 c-4 -10 0 -24 9 -33 15 -15 16 -14 13 11 -5 35 -14 44
-22 22z"/>
<path d="M13687 17678 c5 -21 5 -22 -9 -5 -13 18 -14 17 -14 -2 0 -11 4 -18 7
-15 4 2 10 0 13 -5 4 -5 -4 -12 -16 -14 -21 -4 -21 -4 -2 -6 26 -1 55 -32 57
-60 1 -11 5 -21 9 -21 4 0 7 -5 6 -12 -4 -17 31 -22 37 -5 3 7 -14 46 -39 86
-53 86 -56 90 -49 59z"/>
<path d="M13977 17159 c7 -7 15 -10 18 -7 3 3 -2 9 -12 12 -14 6 -15 5 -6 -5z"/>
<path d="M11161 16995 c0 -5 6 -21 14 -35 8 -14 14 -20 14 -15 0 6 -6 21 -14
35 -8 14 -14 21 -14 15z"/>
<path d="M14180 16845 c1 -5 7 -19 15 -29 8 -10 12 -23 9 -27 -3 -5 0 -9 5 -9
16 0 13 11 -9 45 -11 17 -20 26 -20 20z"/>
<path d="M14420 16420 c6 -11 13 -20 16 -20 2 0 0 9 -6 20 -6 11 -13 20 -16
20 -2 0 0 -9 6 -20z"/>
<path d="M14461 16371 c10 -28 39 -62 39 -46 0 9 -40 75 -45 75 -2 0 1 -13 6
-29z"/>
<path d="M12304 16117 c5 -30 26 -71 32 -64 9 8 -12 81 -24 85 -9 3 -11 -4 -8
-21z"/>
<path d="M14610 16090 c0 -5 5 -10 11 -10 5 0 7 5 4 10 -3 6 -8 10 -11 10 -2
0 -4 -4 -4 -10z"/>
<path d="M14633 16040 c6 -16 15 -30 18 -30 4 0 2 14 -4 30 -6 17 -15 30 -18
30 -4 0 -2 -13 4 -30z"/>
<path d="M14660 15966 c0 -2 9 -6 20 -9 11 -3 18 -1 14 4 -5 9 -34 13 -34 5z"/>
<path d="M12564 15641 c0 -11 4 -17 8 -15 4 3 8 12 8 20 0 8 -4 14 -8 14 -4 0
-8 -9 -8 -19z"/>
<path d="M12569 15601 c9 -6 10 -10 2 -14 -8 -4 -8 -5 1 -3 20 4 21 26 1 26
-14 0 -15 -2 -4 -9z"/>
<path d="M14901 15574 c0 -11 3 -14 6 -6 3 7 2 16 -1 19 -3 4 -6 -2 -5 -13z"/>
<path d="M12566 15497 c3 -10 9 -15 12 -12 3 3 0 11 -7 18 -10 9 -11 8 -5 -6z"/>
<path d="M15548 14091 c8 -4 13 -11 13 -15 -3 -19 0 -27 8 -22 15 9 0 46 -18
46 -12 0 -13 -2 -3 -9z"/>
<path d="M15895 13670 c8 -26 22 -47 28 -39 3 2 -4 18 -15 34 -18 27 -19 28
-13 5z"/>
<path d="M15975 13595 c4 -11 10 -28 12 -37 3 -10 9 -18 14 -18 5 0 2 15 -7
33 -19 38 -30 50 -19 22z"/>
<path d="M16053 13285 c0 -8 4 -15 9 -15 4 0 8 4 8 9 0 6 -4 12 -8 15 -5 3 -9
-1 -9 -9z"/>
<path d="M16410 12370 c-9 -6 -10 -10 -3 -10 6 0 15 5 18 10 8 12 4 12 -15 0z"/>
<path d="M6990 11966 c-14 -8 -29 -12 -34 -9 -5 4 -6 0 -1 -7 6 -9 4 -12 -7
-8 -8 4 -21 2 -29 -3 -9 -6 -4 -8 18 -5 18 2 38 8 45 14 13 10 18 12 38 12 6
0 10 5 10 10 0 13 -10 12 -40 -4z"/>
<path d="M6430 11771 c0 -7 -4 -9 -10 -6 -5 3 -10 1 -10 -5 0 -6 -4 -8 -10 -5
-5 3 -10 1 -10 -5 0 -6 -4 -8 -10 -5 -12 7 -70 -22 -70 -36 0 -6 -4 -7 -10 -4
-5 3 -10 1 -10 -5 0 -6 -4 -8 -10 -5 -5 3 -10 2 -10 -3 0 -5 -14 -15 -30 -22
-17 -7 -29 -15 -26 -17 2 -2 35 12 74 31 38 19 73 32 77 28 5 -4 5 2 1 12 -5
14 -3 16 6 9 9 -7 25 -5 51 7 33 15 36 19 22 30 -11 9 -15 9 -15 1z"/>
<path d="M6156 11531 c-4 -5 1 -8 9 -7 21 3 31 16 12 16 -9 0 -18 -4 -21 -9z"/>
<path d="M5873 11465 c-7 -8 -21 -18 -30 -24 -14 -8 -16 -12 -5 -22 9 -10 12
-10 12 -1 0 7 3 11 8 10 14 -5 54 30 47 41 -8 14 -17 13 -32 -4z"/>
<path d="M5810 11423 c0 -5 -22 -23 -50 -41 -27 -18 -50 -37 -50 -43 0 -6 -4
-8 -9 -4 -5 3 -12 1 -16 -5 -4 -6 -11 -8 -16 -5 -5 4 -9 2 -9 -4 0 -5 -9 -13
-20 -16 -28 -9 -25 -20 5 -20 14 0 25 3 25 6 0 4 30 24 67 45 36 22 68 47 71
57 4 15 7 16 13 5 7 -10 9 -9 9 4 0 9 -4 20 -10 23 -5 3 -10 2 -10 -2z"/>
<path d="M6026 11422 c-3 -5 1 -9 9 -9 8 0 15 4 15 9 0 4 -4 8 -9 8 -6 0 -12
-4 -15 -8z"/>
<path d="M5858 11373 c-37 -20 -64 -41 -61 -47 4 -5 -1 -7 -11 -3 -11 5 -15 3
-10 -5 5 -8 2 -9 -9 -5 -10 3 -17 2 -17 -3 0 -6 -4 -10 -10 -10 -8 0 -75 -42
-88 -55 -3 -2 8 -2 23 1 42 7 211 89 192 92 -9 2 -25 -2 -36 -8 -12 -6 -21 -7
-21 -3 0 5 30 25 68 46 37 20 63 37 57 37 -5 0 -40 -17 -77 -37z"/>
<path d="M5645 11199 c-4 -6 -5 -12 -2 -15 2 -3 7 2 10 11 7 17 1 20 -8 4z"/>
<path d="M16803 11195 c0 -8 4 -12 9 -9 5 3 6 10 3 15 -9 13 -12 11 -12 -6z"/>
<path d="M5490 11080 c0 -5 5 -10 11 -10 5 0 7 5 4 10 -3 6 -8 10 -11 10 -2 0
-4 -4 -4 -10z"/>
<path d="M17175 9810 c3 -25 8 -85 11 -135 3 -49 7 -106 9 -125 2 -19 3 -45 4
-57 1 -24 31 -33 31 -10 0 27 -41 303 -50 337 -9 33 -9 33 -5 -10z"/>
<path d="M17148 9513 c7 -3 16 -2 19 1 4 3 -2 6 -13 5 -11 0 -14 -3 -6 -6z"/>
<path d="M17148 9493 c7 -3 16 -2 19 1 4 3 -2 6 -13 5 -11 0 -14 -3 -6 -6z"/>
<path d="M17148 9473 c7 -3 16 -2 19 1 4 3 -2 6 -13 5 -11 0 -14 -3 -6 -6z"/>
<path d="M17255 8995 c0 -37 4 -65 10 -65 5 0 3 -5 -5 -10 -13 -9 -13 -10 0
-10 13 0 13 -1 0 -10 -13 -9 -13 -10 0 -10 13 0 13 -1 0 -10 -13 -9 -13 -10 0
-10 13 0 13 -1 0 -10 -13 -8 -12 -10 3 -10 14 0 17 9 17 53 0 67 -11 157 -19
157 -4 0 -6 -29 -6 -65z"/>
<path d="M3859 8468 c-7 -55 -6 -78 2 -78 5 0 9 20 9 45 0 41 -8 63 -11 33z"/>
<path d="M3847 8359 c7 -7 15 -10 18 -7 3 3 -2 9 -12 12 -14 6 -15 5 -6 -5z"/>
<path d="M3847 8334 c8 -4 9 -13 3 -29 -5 -12 -6 -26 -3 -29 4 -3 1 -6 -6 -6
-9 0 -12 -23 -9 -90 2 -50 1 -91 -2 -93 -3 -1 -3 -29 0 -62 5 -56 6 -52 13 50
4 61 10 126 13 145 3 19 7 49 8 66 1 17 6 36 10 42 5 8 -1 12 -16 11 -13 0
-18 -3 -11 -5z"/>
<path d="M3980 8156 c0 -8 -6 -17 -12 -19 -9 -4 -8 -6 2 -6 13 -1 13 -2 0 -12
-11 -7 -12 -12 -3 -15 7 -3 9 -12 6 -20 -3 -8 0 -14 6 -14 6 0 11 15 12 33 0
17 2 40 4 50 2 9 -1 17 -6 17 -5 0 -9 -6 -9 -14z"/>
<path d="M3969 8018 c0 -24 -2 -51 -4 -60 -2 -10 1 -18 6 -18 5 0 9 3 10 8 0
4 2 31 5 60 3 33 1 52 -5 52 -6 0 -11 -19 -12 -42z"/>
<path d="M3830 7865 c-7 -9 -11 -17 -9 -20 3 -2 10 5 17 15 14 24 10 26 -8 5z"/>
<path d="M3950 7850 c0 -5 5 -10 11 -10 5 0 7 5 4 10 -3 6 -8 10 -11 10 -2 0
-4 -4 -4 -10z"/>
<path d="M3848 7809 c5 -48 10 -46 16 4 4 25 1 37 -7 37 -9 0 -11 -13 -9 -41z"/>
<path d="M17156 7293 c-6 -14 -5 -15 5 -6 7 7 10 15 7 18 -3 3 -9 -2 -12 -12z"/>
<path d="M17146 7254 c-7 -19 -8 -49 -1 -42 7 7 17 58 11 58 -2 0 -7 -7 -10
-16z"/>
<path d="M17078 7223 c7 -3 16 -2 19 1 4 3 -2 6 -13 5 -11 0 -14 -3 -6 -6z"/>
<path d="M17008 6933 c6 -2 18 -2 25 0 6 3 1 5 -13 5 -14 0 -19 -2 -12 -5z"/>
<path d="M17320 6390 c-23 -7 -23 -8 -3 -9 12 -1 25 4 28 9 3 6 5 10 3 9 -2
-1 -14 -5 -28 -9z"/>
<path d="M17588 5343 c7 -3 16 -2 19 1 4 3 -2 6 -13 5 -11 0 -14 -3 -6 -6z"/>
<path d="M17640 5275 c7 -9 15 -13 17 -11 7 7 -7 26 -19 26 -6 0 -6 -6 2 -15z"/>
<path d="M17423 5135 c3 -49 6 -59 25 -66 20 -8 22 -6 16 19 -4 15 -11 30 -16
33 -5 3 -11 19 -14 35 -9 49 -14 40 -11 -21z"/>
<path d="M17527 4914 c-8 -8 3 -34 14 -34 11 0 12 27 0 34 -4 3 -11 3 -14 0z"/>
<path d="M4415 4899 c-4 -6 -5 -12 -2 -15 2 -3 7 2 10 11 7 17 1 20 -8 4z"/>
<path d="M4365 4858 c-11 -6 -23 -15 -26 -20 -3 -6 -10 -10 -15 -11 -5 -1 -7
-10 -6 -19 2 -12 -3 -18 -17 -18 -11 0 -23 -4 -26 -10 -3 -5 0 -10 7 -10 7 0
-7 -12 -32 -27 -49 -29 -76 -53 -63 -54 4 0 28 -1 53 -2 l45 -2 57 85 c70 102
73 117 23 88z"/>
<path d="M17517 4793 c-11 -10 -8 -33 6 -47 16 -16 47 -27 47 -17 0 5 -9 11
-21 14 -12 3 -18 10 -15 16 4 5 1 13 -5 17 -8 4 -7 9 2 15 8 5 9 9 3 9 -6 0
-14 -3 -17 -7z"/>
<path d="M17347 4654 c3 -7 9 -14 14 -14 14 0 10 17 -5 23 -10 4 -13 1 -9 -9z"/>
<path d="M4159 4613 c-13 -16 -12 -17 4 -4 9 7 17 15 17 17 0 8 -8 3 -21 -13z"/>
<path d="M16690 4450 c6 -11 16 -20 23 -19 9 0 9 2 0 6 -22 8 -14 21 10 16 18
-4 19 -3 7 6 -8 6 -23 11 -33 11 -15 0 -16 -3 -7 -20z"/>
<path d="M16550 4421 c0 -12 28 -22 35 -12 3 5 -2 12 -11 15 -21 8 -24 8 -24
-3z"/>
<path d="M16701 4328 c2 -13 0 -29 -4 -35 -8 -13 -1 -33 11 -33 4 0 15 14 24
31 10 16 13 27 7 23 -7 -4 -9 1 -4 15 5 17 2 21 -15 21 -16 0 -21 -5 -19 -22z"/>
<path d="M5610 4285 c0 -2 6 -8 13 -14 10 -8 14 -7 14 2 0 8 -6 14 -14 14 -7
0 -13 -1 -13 -2z"/>
<path d="M16595 4269 c4 -5 16 -9 27 -9 26 0 19 9 -11 15 -12 2 -19 0 -16 -6z"/>
<path d="M5652 4258 c-7 -7 -12 -19 -12 -28 0 -9 -6 -22 -12 -30 -11 -12 -10
-12 4 -1 9 6 21 25 27 42 11 32 10 34 -7 17z"/>
<path d="M5682 4095 c26 -27 49 -47 51 -45 2 3 -20 25 -47 50 l-51 44 47 -49z"/>
<path d="M5560 4110 c-9 -6 -10 -10 -3 -10 6 0 15 5 18 10 8 12 4 12 -15 0z"/>
<path d="M5524 4098 c-4 -7 -14 -24 -22 -38 -14 -24 -13 -24 3 -5 20 24 37 55
31 55 -3 0 -8 -6 -12 -12z"/>
<path d="M5540 4079 c0 -5 5 -7 10 -4 6 3 10 8 10 11 0 2 -4 4 -10 4 -5 0 -10
-5 -10 -11z"/>
<path d="M5805 3980 c-3 -5 1 -13 10 -16 22 -9 29 1 11 15 -10 8 -16 9 -21 1z"/>
<path d="M5313 3735 c-12 -14 -17 -27 -13 -30 5 -3 16 8 25 25 19 36 17 37
-12 5z"/>
<path d="M5164 3644 c-20 -33 -43 -68 -50 -79 -8 -11 -24 -34 -35 -51 -11 -19
-27 -31 -37 -29 -9 1 -11 0 -5 -2 9 -3 10 -10 3 -23 -6 -10 -7 -21 -2 -24 7
-4 133 177 162 232 25 49 -1 32 -36 -24z"/>
<path d="M5265 3684 c-10 -8 -15 -14 -10 -14 5 0 0 -7 -11 -15 -12 -9 -14 -14
-6 -15 7 0 10 -5 6 -12 -4 -7 -3 -8 5 -4 6 4 9 11 6 16 -3 4 2 11 11 14 8 3
13 10 10 15 -4 5 2 11 11 13 10 2 13 6 8 10 -6 3 -19 0 -30 -8z"/>
<path d="M5144 3552 c3 -5 1 -12 -6 -14 -8 -3 -9 -6 -1 -11 6 -4 13 0 17 8 3
8 0 17 -6 21 -6 4 -8 3 -4 -4z"/>
<path d="M5180 3515 c0 -8 2 -15 4 -15 2 0 6 7 10 15 3 8 1 15 -4 15 -6 0 -10
-7 -10 -15z"/>
<path d="M4726 2973 l-26 -48 24 29 c21 26 40 66 31 66 -2 0 -15 -21 -29 -47z"/>
<path d="M2821 2636 c-12 -18 -21 -38 -21 -44 0 -6 -27 -53 -60 -103 -33 -50
-58 -95 -55 -99 3 -5 -1 -10 -7 -13 -7 -2 -10 -7 -7 -11 11 -12 179 236 179
264 0 5 6 11 13 13 9 4 9 6 -1 6 -7 1 -10 6 -7 11 3 6 2 10 -4 10 -5 0 -19
-15 -30 -34z"/>
<path d="M4520 2588 c-12 -22 -12 -22 6 -6 10 10 15 20 12 24 -4 3 -12 -5 -18
-18z"/>
<path d="M4376 2479 c3 -5 -1 -19 -7 -31 -11 -20 -10 -22 3 -10 21 17 29 49
12 49 -7 0 -11 -4 -8 -8z"/>
<path d="M4264 2315 c-5 -13 -9 -13 -23 -3 -14 12 -15 11 -2 -4 17 -22 18 -22
31 2 6 11 8 20 5 20 -3 0 -8 -7 -11 -15z"/>
<path d="M4136 2158 c3 -5 10 -6 15 -3 13 9 11 12 -6 12 -8 0 -12 -4 -9 -9z"/>
<path d="M2525 1840 c-3 -5 -1 -10 4 -10 6 0 11 5 11 10 0 6 -2 10 -4 10 -3 0
-8 -4 -11 -10z"/>
<path d="M3553 1367 c-10 -13 -42 -50 -70 -82 -50 -56 -53 -58 -71 -42 -18 16
-20 15 -51 -35 -17 -29 -22 -42 -11 -29 11 13 20 22 21 20 6 -30 5 -38 -3 -36
-6 1 -13 -4 -15 -10 -9 -24 16 -13 37 17 13 18 16 28 8 25 -9 -4 -14 2 -14 14
0 16 4 18 19 10 14 -8 27 -1 66 38 49 49 117 133 108 133 -3 0 -14 -10 -24
-23z"/>
<path d="M3325 1120 c-3 -6 1 -7 9 -4 18 7 21 14 7 14 -6 0 -13 -4 -16 -10z"/>
<path d="M3305 1089 c-4 -6 -5 -12 -2 -15 2 -3 7 2 10 11 7 17 1 20 -8 4z"/>
<path d="M3226 1042 c-3 -5 1 -9 9 -9 8 0 12 4 9 9 -3 4 -7 8 -9 8 -2 0 -6 -4
-9 -8z"/>
<path d="M3189 983 c-13 -16 -12 -17 4 -4 16 13 21 21 13 21 -2 0 -10 -8 -17
-17z"/>
</g>
</svg>
